<svg id="Layer_1" data-name="Layer 1" xmlns="http://www.w3.org/2000/svg" viewBox="0 0 94 120"><defs><style>.cls-1{fill:#106333;}.cls-2{fill:#28724a;}.cls-3{fill:#a4b29e;}.cls-4{fill:#74a47e;}.cls-5{fill:#76a282;}.cls-6{fill:#7aa283;}.cls-7{fill:#78a384;}.cls-8{fill:#79a283;}.cls-9{fill:#789b51;}.cls-10{fill:#76a07c;}.cls-11{fill:#98b479;}.cls-12{fill:#217448;}.cls-13{fill:#116333;}.cls-14{fill:#0e6031;}.cls-15{fill:#789e5d;}.cls-16{fill:#78a37e;}.cls-17{fill:#799f61;}.cls-18{fill:#76a37e;}.cls-19{fill:#76a041;}.cls-20{fill:#a4a971;}.cls-21{fill:#136534;}.cls-22{fill:#0e5832;}.cls-23{fill:#487942;}.cls-24{fill:#306c4d;}.cls-25{fill:#296f4a;}.cls-26{fill:#547c65;}.cls-27{fill:#608f73;}.cls-28{fill:#0e5c35;}.cls-29{fill:#0f5c34;}</style></defs><title>Alnahdi</title><path class="cls-1" d="M22.44,9.38c2.46,0,4.92,0,7.38,0,0,1.25,0,2.51,0,3.76-.69,0-1.37-.07-2-.08-.84,0-1.68,0-2.5,0q0,47,0,94.07l2.6,0c0-3.89,0-7.78,0-11.67,2.75,0,5.5,0,8.25,0,0,5.08,0,10.16,0,15.25-1,.05-1.94.09-2.91.18,0-4,.15-8,0-12l-.81,0a13.86,13.86,0,0,0-1.71,0L30,99c-.23,3.92,0,7.85-.17,11.77-2.44,0-4.89,0-7.34,0Q22.42,60.09,22.44,9.38Z"/><path class="cls-2" d="M29.82,9.39l.87,0q0,37.16,0,74.32c-.06,2.9.11,5.8-.07,8.7l-.76.31c-.15-26.52,0-53,0-79.55C29.83,11.9,29.82,10.64,29.82,9.39Z"/><path class="cls-3" d="M32.43,9.38h.9c-.08,20.86,0,41.72-.1,62.57,0,5.5-.1,11,0,16.5h-.83Q32.44,48.92,32.43,9.38Z"/><path class="cls-4" d="M33.33,9.38h2.82c-.06,27.74,0,55.48-.06,83.21H33.33c0-1.38,0-2.76-.07-4.14-.13-5.5,0-11,0-16.5C33.34,51.1,33.25,30.24,33.33,9.38Z"/><path class="cls-5" d="M37.85,9.39h3.71v83.2l-3.66,0C37.81,64.87,37.9,37.13,37.85,9.39Z"/><path class="cls-6" d="M43.3,9.38H47Q47,51,47,92.59H43.32Q43.29,51,43.3,9.38Z"/><path class="cls-7" d="M48.74,9.38h3.68c0,15.87.06,31.75,0,47.62a47.63,47.63,0,0,1-3.58,6C48.66,45.12,48.76,27.25,48.74,9.38Z"/><path class="cls-8" d="M54.17,9.38h3.68c0,9.56,0,19.12,0,28.68a19.08,19.08,0,0,1-.1,2.83c-1.36,3.13-1.87,6.56-3.53,9.55C54.07,36.76,54.21,23.07,54.17,9.38Z"/><path class="cls-9" d="M59.64,9.25l.91.21a40.78,40.78,0,0,1,.6,14.81c-.48,2.92-.58,5.91-1.46,8.76C59.51,25.11,59.61,17.17,59.64,9.25Z"/><path class="cls-9" d="M57.93,101.07A9.65,9.65,0,0,1,63.25,100c0,2.38,0,4.76,0,7.14l-.65-.13c-.06-2.19,0-4.37-.11-6.55C61,100.6,59.45,100.82,57.93,101.07Z"/><path class="cls-10" d="M60.55,9.46c.61,0,1.23-.08,1.86-.1.12,25,0,50.06.08,75.08L59.6,86.81q0-17.41,0-34.84c.07-6.31-.14-12.64.1-18.94.88-2.85,1-5.84,1.46-8.76A40.78,40.78,0,0,0,60.55,9.46Z"/><path class="cls-11" d="M62.41,9.36l.88,0q0,40.85,0,81.69a5.58,5.58,0,0,1-.36,2l-.11-.51c-.39-2.68-.12-5.39-.3-8.09C62.37,59.42,62.53,34.39,62.41,9.36Z"/><path class="cls-12" d="M65,9.37l.86,0,0,3.43q0,45,0,90a18.92,18.92,0,0,0,.4,3.35l-1.31.93C65.09,74.51,65,41.94,65,9.37Z"/><path class="cls-13" d="M65.89,9.39c2.46,0,4.93,0,7.39,0q0,50.7,0,101.4H70.49c-.07-32.55,0-65.1,0-97.65-.85,0-1.7-.06-2.54-.13l-2-.18Z"/><path class="cls-14" d="M27.78,13.07c.68,0,1.36,0,2,.08,0,26.51-.11,53,0,79.55-.66-.07-1.32-.12-2-.16,0-24.24,0-48.49,0-72.73C27.85,17.56,27.94,15.31,27.78,13.07Z"/><path class="cls-14" d="M65.92,12.82l2,.18c-.2,32.58,0,65.18-.11,97.77l-1.76,0a7.59,7.59,0,0,0,.24-4.64,18.92,18.92,0,0,1-.4-3.35Q66,57.82,65.92,12.82Z"/><path class="cls-15" d="M54.24,50.44c1.66-3,2.17-6.42,3.53-9.55a29.72,29.72,0,0,1,0,4.81c-1.19,2.74-2.25,5.53-3.56,8.2A16.67,16.67,0,0,1,54.24,50.44Z"/><path class="cls-16" d="M54.23,53.9c1.31-2.67,2.37-5.46,3.56-8.2.15,15.63.05,31.25,0,46.88-1.22,0-2.43,0-3.65,0C54.21,79.69,54.08,66.79,54.23,53.9Z"/><path class="cls-17" d="M48.8,63a47.63,47.63,0,0,0,3.58-6,17.63,17.63,0,0,1,0,2.62,38.46,38.46,0,0,1-3.58,6A12,12,0,0,1,48.8,63Z"/><path class="cls-18" d="M48.8,65.6a38.46,38.46,0,0,0,3.58-6c.1,11,0,22,0,33H48.75C48.76,83.59,48.65,74.59,48.8,65.6Z"/><path class="cls-19" d="M59.6,86.81l2.89-2.37c.18,2.7-.09,5.41.3,8.09-1.07,0-2.13.07-3.18.07C59.58,90.67,59.59,88.74,59.6,86.81Z"/><path class="cls-20" d="M32.43,88.46h.83c0,1.38,0,2.76.07,4.14h-.9C32.43,91.21,32.44,89.84,32.43,88.46Z"/><path class="cls-21" d="M37.88,95.44c3,0,6.09,0,9.13,0,0,2.09,0,4.17,0,6.25h1.72c0-2.08,0-4.16,0-6.24,3-.07,6.08,0,9.12,0,0,1.88,0,3.76.1,5.64,1.52-.25,3-.47,4.58-.65.1,2.18.05,4.36.11,6.55l.65.13a4.47,4.47,0,0,0,1.71,0l1.31-.93a7.59,7.59,0,0,1-.24,4.64c-2.16,0-4.32,0-6.48-.08,0-2.14,0-4.29,0-6.43H57.93c-.1,2.14-.09,4.29,0,6.43-3,.13-6.08.06-9.12,0,0-2.14,0-4.29,0-6.44-3.62,0-7.23,0-10.84,0,.06-.83.12-1.66.19-2.48,1.71,0,3.42-.08,5.14-.08l0-.93c0-.64,0-1.27,0-1.91,0-.19-.05-.58-.06-.77C41.43,98,39.65,98,37.87,98,37.87,97.15,37.87,96.29,37.88,95.44ZM52.42,98.9v2.81h1.75c0-.93,0-1.87,0-2.8Zm0,5.44c0,.94,0,1.87,0,2.82h1.73c0-.94,0-1.88,0-2.82Z"/><path class="cls-22" d="M59.63,95.42h2.86c0,.86-.08,1.72-.11,2.57-1,0-1.93.09-2.89.15C59.56,97.24,59.6,96.33,59.63,95.42Z"/><path class="cls-23" d="M62.49,95.43l.79,0c0,1.16,0,2.33,0,3.49a30.69,30.69,0,0,1-3.46-.07c-.08-.17-.25-.51-.34-.68,1-.06,1.93-.11,2.89-.15C62.41,97.15,62.45,96.29,62.49,95.43Z"/><path class="cls-24" d="M37.87,98c1.78,0,3.56,0,5.35.14,0,.19,0,.58.06.77-1.8,0-3.59,0-5.38,0C37.89,98.68,37.88,98.22,37.87,98Z"/><path class="cls-25" d="M30,99l.75-.08c0,3.95,0,7.89,0,11.84h-.9C29.92,106.86,29.73,102.93,30,99Z"/><path class="cls-26" d="M32.42,98.89l.81,0c.16,4,0,8,0,12l-.73-.29C32.32,106.71,32.5,102.79,32.42,98.89Z"/><path class="cls-27" d="M37.87,100.85c1.8,0,3.59,0,5.39,0l0,.93c-1.72,0-3.43,0-5.14.08-.07.82-.13,1.65-.19,2.48C37.88,103.15,37.88,102,37.87,100.85Z"/><path class="cls-28" d="M37.84,107.18q1.86,0,3.72,0c0,1.21,0,2.42,0,3.64-1.24,0-2.47,0-3.7-.06C37.86,109.55,37.86,108.37,37.84,107.18Z"/><path class="cls-29" d="M43.3,107.16H47c0,1.21,0,2.42,0,3.63-1.23,0-2.45,0-3.67,0C43.29,109.57,43.29,108.37,43.3,107.16Z"/></svg>