<svg id="Layer_1" data-name="Layer 1" xmlns="http://www.w3.org/2000/svg" xmlns:xlink="http://www.w3.org/1999/xlink" viewBox="0 0 600 318.9"><defs><style>.cls-1{fill:#e2b674;}.cls-2{fill:#ffd494;}.cls-3{fill:#f89c53;}.cls-4{fill:#465477;}.cls-5{fill:#f26f6f;}.cls-6{fill:#e1e1e1;}.cls-7{fill:#ececec;}.cls-8{fill:#4b4c61;}.cls-11,.cls-15,.cls-9{fill:#fff;}.cls-12,.cls-9{stroke:#4b4c61;stroke-miterlimit:10;}.cls-10{fill:#8fdd66;}.cls-12{fill:none;stroke-width:0.5px;}.cls-13{fill:#f6ca65;}.cls-14{fill:#ff9d9d;}.cls-15{opacity:0.35;}.cls-16{fill:url(#linear-gradient);}.cls-17{fill:url(#linear-gradient-2);}.cls-18{fill:url(#linear-gradient-3);}.cls-19{fill:url(#linear-gradient-4);}.cls-20{fill:url(#linear-gradient-5);}.cls-21{fill:url(#linear-gradient-6);}.cls-22{fill:url(#linear-gradient-7);}.cls-23{fill:url(#linear-gradient-8);}.cls-24{fill:url(#linear-gradient-9);}.cls-25{fill:url(#linear-gradient-10);}.cls-26{fill:url(#linear-gradient-11);}.cls-27{fill:#02a4d3;}.cls-28{fill:url(#linear-gradient-12);}.cls-29{fill:url(#linear-gradient-13);}.cls-30{fill:url(#linear-gradient-14);}</style><linearGradient id="linear-gradient" x1="-705.19" y1="156.42" x2="-675.64" y2="234.75" gradientTransform="matrix(-1, 0, 0, 1, -575.8, 0)" gradientUnits="userSpaceOnUse"><stop offset="0" stop-color="#f9b776"/><stop offset="1" stop-color="#f47960"/></linearGradient><linearGradient id="linear-gradient-2" x1="6567.07" y1="311.99" x2="6596.52" y2="311.99" gradientTransform="translate(-6496.2)" gradientUnits="userSpaceOnUse"><stop offset="0" stop-color="#4d4d4d"/><stop offset="1" stop-color="#1a1a1a"/></linearGradient><linearGradient id="linear-gradient-3" x1="6567.07" y1="317.26" x2="6596.52" y2="317.26" gradientTransform="translate(-6496.2)" gradientUnits="userSpaceOnUse"><stop offset="0" stop-color="gray"/><stop offset="1" stop-color="#666"/></linearGradient><linearGradient id="linear-gradient-4" x1="6515.34" y1="312.06" x2="6529.13" y2="312.06" xlink:href="#linear-gradient-2"/><linearGradient id="linear-gradient-5" x1="6515.34" y1="318.31" x2="6528.72" y2="318.31" xlink:href="#linear-gradient-3"/><linearGradient id="linear-gradient-6" x1="6521.17" y1="302.59" x2="6530.12" y2="302.59" gradientTransform="translate(-6496.2)" xlink:href="#linear-gradient"/><linearGradient id="linear-gradient-7" x1="6568.57" y1="302.01" x2="6576.02" y2="302.01" gradientTransform="translate(-6496.2)" xlink:href="#linear-gradient"/><linearGradient id="linear-gradient-8" x1="6590.84" y1="117.25" x2="6594.5" y2="94.68" gradientTransform="translate(-6496.2)" xlink:href="#linear-gradient"/><linearGradient id="linear-gradient-9" x1="6602.68" y1="80.65" x2="6578.96" y2="98.79" gradientTransform="translate(-6496.2)" xlink:href="#linear-gradient"/><linearGradient id="linear-gradient-10" x1="6575.95" y1="53.38" x2="6597.4" y2="81" gradientTransform="translate(-6496.2)" gradientUnits="userSpaceOnUse"><stop offset="0" stop-color="#1a1a1a"/><stop offset="1" stop-color="#333"/></linearGradient><linearGradient id="linear-gradient-11" x1="6599.72" y1="76.8" x2="6576.01" y2="94.95" gradientTransform="translate(-6496.2)" xlink:href="#linear-gradient"/><linearGradient id="linear-gradient-12" x1="-620.29" y1="159.71" x2="-587.02" y2="207.77" xlink:href="#linear-gradient"/><linearGradient id="linear-gradient-13" x1="-726.06" y1="164.24" x2="-696.47" y2="242.66" xlink:href="#linear-gradient"/><linearGradient id="linear-gradient-14" x1="-629.86" y1="172.71" x2="-603.56" y2="210.7" xlink:href="#linear-gradient"/></defs><title>02مجموعة محمد النهدي العقارية</title><path class="cls-1" d="M600,313.22v5.53H337.65c33.79-.05,73.48-.09,118.63-.09h4.1s-.28-.65-.78-1.86a182.59,182.59,0,0,0,45-37.69h0c.29-.21.59-.43.88-.67a24.25,24.25,0,0,0,5.78-6.91,31.51,31.51,0,0,1,4.17,6.82c1.82,4.1,3.24,10.87-.77,21.83-.57,1.05-1.15,2-1.72,3,3,.37,6,.74,9.12,1.1l-1,14.43h15.1l-.7-12.83C557.44,308.4,579.74,310.88,600,313.22Z"/><path class="cls-1" d="M511.09,271.27c.07.08.14.17.22.25a24.25,24.25,0,0,1-5.78,6.91c-.29.24-.59.46-.88.67h0a182.59,182.59,0,0,1-45,37.69c.5,1.21.78,1.86.78,1.86h-4.1c-45.15,0-84.84,0-118.63.09H13.17C8.48,291.88-13.51,150,73.42,57.41,88.92,40.92,119.8,8.14,169.64,1.27c31.3-4.29,64.83,2.38,93.11,18.54a139.74,139.74,0,0,1,32.56,25.5,136.76,136.76,0,0,1,25.44,38.21c1.14-1.36,2.44-2.85,3.92-4.42,8.64-9.16,22.92-20.93,42.37-24.84,15.94-3.2,35.79-1.51,52.06,7.43a57.42,57.42,0,0,1,19.39,17.06A58.32,58.32,0,0,1,446.81,96a70.65,70.65,0,0,1,.06,39.43v0c-.08.31-.18.61-.27.92-.41,1.3-.85,2.58-1.32,3.82-8.23,21.35-23.62,23.54-30.52,49.46-2,7.34-4.87,19.54.19,31.74,4.94,12,14.73,18.82,22,22.34a36.64,36.64,0,0,0,8.62,3.11c.6.09,1.19.19,1.79.3h0l1.18.2C483,253,501.77,260,511.09,271.27Z"/><path class="cls-1" d="M535.52,305.83l.7,12.83h-15.1l1-14.43C526.54,304.77,531,305.31,535.52,305.83Z"/><path class="cls-2" d="M548.16,180.55A225.23,225.23,0,0,1,542,211.24a180.1,180.1,0,0,1-8.14,22q-1,2.25-2,4.42-1.41,3-2.93,5.89c-1,1.86-2,3.7-3,5.49a180.8,180.8,0,0,1-9.7,15.31c-1.33,1.87-2.67,3.7-4,5.47-.35.46-.71.94-1.08,1.4-2.12,2.73-4.28,5.35-6.44,7.83h0a182.59,182.59,0,0,1-45,37.69c-1.3.75-2.42,1.37-3.32,1.86-45.15,0-84.84,0-118.63.09s-61.65.1-83.18.1c-4,0-8.38,0-13.23-.1-17.37-.2-41.29-.67-81.26-.67a41.14,41.14,0,0,1-5.08-.28,46.11,46.11,0,0,1-18.64-6.38c-3-1.91-9.85-6.21-13.78-14.31,0,0-5.25-10.77-.76-25.63,5.64-19.83,39.12-30.12,82-37,3.63-.57,26.78-7.82,36-29.83,6.5-15.73,2.29-30.41.19-37.28-5.93-19.44-16.55-23.53-26.68-38.79C196.33,103.16,193,61.7,212,37.49c12.4-15.86,33.35-21.43,50.74-17.68a40.14,40.14,0,0,1,4.82,1.28c28.73,9.52,34.2,39.65,57.1,58a61.69,61.69,0,0,0,18.27,10.14c4.87,1.72,19.31,6.68,36.53,2.58,18.82-4.44,29.86-17.06,39.63-30.13,11.23-15,20.77-30.63,38.52-35.06C489.08,18.71,519,52.45,522,55.89,553.73,92.57,552.81,146.78,548.16,180.55Z"/><path class="cls-3" d="M514.29,263.8a29.67,29.67,0,0,1-2.12,6.07c-.27.56-.55,1.11-.86,1.65a24.25,24.25,0,0,1-5.78,6.91c-.29.24-.59.46-.88.67h0c-10.49,7.37-28.34,3.29-34.29,1.9-11.18-2.55-13-6.32-22.21-6.66h-.26c-6.41-.21-10.29,1.37-14.23,3.09a41.08,41.08,0,0,1-11.3,3.58c-13.78,1.91-32.72-4-39.22-16-8.13-15.05,3.73-36.69,14.34-56,7.09-13,10.81-15.15,15.79-28,3.44-8.77,4.87-17.06,7.94-33.55,3.72-20.58,3.72-28.12,9.94-38.6,4.49-7.72,7.75-13.24,12.53-13.43a7.24,7.24,0,0,1,3.16.6c12.47,5.07,27.1,41.23,28.59,74.4.48,10.3-.95,13,1.34,20,2,6.08,5.35,11,9.37,15.76,7.06,8.27,16.08,15.75,23,27C514.66,242.44,516.62,254,514.29,263.8Z"/><path class="cls-4" d="M460.38,318.66h-27s1.26-6.43.22-41.23c-.05-1.16-.08-2.35-.12-3.56a98.66,98.66,0,0,1,3.43-30.19c2.37-8.7,5.3-15.57,6.73-22.66a39.42,39.42,0,0,0,.81-9.92,40.78,40.78,0,0,0-1.6-9.39c-6.28-21.94,2-58.29,3.72-65.39.19-.81.3-1.23.3-1.23l0,.29v0c-.3,2.82-2.32,24.82,2.32,53.63,4.95,30.69,1.29,23.92-1.84,58.06l-.06.65a118.29,118.29,0,0,0,.83,26.61A182,182,0,0,0,459.6,316.8C460.1,318,460.38,318.66,460.38,318.66Z"/><polygon class="cls-4" points="448.53 236.88 483.53 227.16 447.28 248.03 448.53 236.88"/><polygon class="cls-4" points="445.18 221.92 418.88 206.28 445.18 211.24 445.18 218.77 445.18 221.92"/><path class="cls-5" d="M528.67,266.14a45,45,0,1,0-45.14-45A45.07,45.07,0,0,0,528.67,266.14Z"/><polygon class="cls-4" points="529.82 234.4 565.02 224.68 528.67 245.55 529.82 234.4"/><polygon class="cls-4" points="528.67 221.15 502.28 205.52 528.67 215.53 528.67 218.01 528.67 221.15"/><polygon class="cls-4" points="536.23 318.66 521.12 318.66 522.11 304.23 524.73 265.97 525.89 249.09 527.85 220.67 528.21 215.35 529.53 196.19 531.6 233.92 531.8 237.71 532.12 243.57 533.34 265.89 535.52 305.83 536.23 318.66"/><path class="cls-6" d="M278.42,160l-5.83-10.13-9.14,1.34-7.55-9.45,3.89-9.4-10.19-6.74-7.6,7.64-10-1.75-4.06-11.73-12.17,1.28-.69,10.26-9.07,4.6-9.6-6.78-9.74,7.07,5.06,10.87-5.8,8.7-10.53-.56-2.75,12.94,10,3.84.86,10.88-10.38,5.94,5,11.22,10.75-1.66,7.12,8.19-3.72,10.21,9.85,6.93,7.68-8.28,10.67,2.87,3.32,11,11.85-.8,1.53-9.85,10.16-5.81,8.31,6.61,10.52-7.81-5.32-9.23,5.18-9.24,10.66.78,3.27-12-9.15-4.94-1.22-11Zm-41.28,35.43A23.89,23.89,0,1,1,246,162.85,24,24,0,0,1,237.14,195.43Z"/><path class="cls-6" d="M235.82,167.79a24,24,0,0,0-1.95-2.41,12.64,12.64,0,0,0-7.43-3.64,12.48,12.48,0,0,0-11.11,4.34,12.54,12.54,0,0,0-2.85,6.62,12.35,12.35,0,0,0,7.32,12.7,11.72,11.72,0,0,0,3.6,1,11.88,11.88,0,0,0,3.58-.1,12.52,12.52,0,0,0,6-2.76,12.38,12.38,0,0,0,3.41-4.62,12.52,12.52,0,0,0,.59-8.22,23.41,23.41,0,0,0-1.11-2.9,1,1,0,0,1,.11.18l.3.52a6.31,6.31,0,0,1,.42.89,8.27,8.27,0,0,1,.45,1.26,11.68,11.68,0,0,1,.52,3.63,12.71,12.71,0,0,1-4.44,9.55,12.86,12.86,0,0,1-6.13,2.89,12.79,12.79,0,0,1-7.43-.89A12.74,12.74,0,0,1,212,172.65a12.87,12.87,0,0,1,3-6.85,12.94,12.94,0,0,1,5.6-3.81,12.78,12.78,0,0,1,10.51,1,12,12,0,0,1,2.89,2.28,9.15,9.15,0,0,1,.87,1,6.14,6.14,0,0,1,.55.81l.31.52Q235.84,167.79,235.82,167.79Z"/><path class="cls-6" d="M247.22,141.21c.1.07-3.17,5.22-7.32,11.5S232.31,164,232.2,164s3.17-5.22,7.31-11.5S247.11,141.14,247.22,141.21Z"/><path class="cls-6" d="M259,183a28.06,28.06,0,0,1-3.21-.94c-2-.61-4.71-1.4-7.77-2.15s-5.86-1.29-7.89-1.65a31.77,31.77,0,0,1-3.29-.64,3.53,3.53,0,0,1,.91,0c.57,0,1.41.14,2.43.28,2.05.29,4.88.79,8,1.53s5.81,1.6,7.76,2.29c1,.35,1.76.64,2.3.87A3.61,3.61,0,0,1,259,183Z"/><path class="cls-6" d="M230.19,185.75a18.88,18.88,0,0,1,1,2.8c.54,1.75,1.22,4.2,1.86,6.93s1.1,5.22,1.4,7a17.12,17.12,0,0,1,.35,3,21,21,0,0,1-.68-2.89c-.37-1.8-.89-4.27-1.53-7s-1.26-5.17-1.71-6.94A19.42,19.42,0,0,1,230.19,185.75Z"/><path class="cls-6" d="M217.25,184.29c.11.06-2.05,3.82-4.81,8.39s-5.1,8.23-5.21,8.16,2-3.82,4.81-8.4S217.14,184.22,217.25,184.29Z"/><path class="cls-6" d="M215.41,143.59c.12,0,1.46,3.95,3,8.9s2.67,9,2.55,9-1.46-3.94-3-8.89S215.29,143.63,215.41,143.59Z"/><path class="cls-6" d="M212.7,171.69a60.76,60.76,0,0,1-7.48-.48,59.24,59.24,0,0,1-7.43-.94,63.23,63.23,0,0,1,7.48.48A59.93,59.93,0,0,1,212.7,171.69Z"/><ellipse class="cls-6" cx="224.83" cy="174.08" rx="9.88" ry="9.84"/><path class="cls-7" d="M229.61,174.16a15.72,15.72,0,0,1-1.36-.81,9.51,9.51,0,0,0-3.54-1.13,9.36,9.36,0,0,0-3.69.35c-.93.28-1.47.56-1.5.5a3.34,3.34,0,0,1,1.39-.81,8.29,8.29,0,0,1,7.51.81A3.53,3.53,0,0,1,229.61,174.16Z"/><path class="cls-7" d="M225.65,168.39a24,24,0,0,0-1.56,4.56,24.67,24.67,0,0,0-.14,4.83,8.62,8.62,0,0,1-.32-4.91A8.47,8.47,0,0,1,225.65,168.39Z"/><path class="cls-8" d="M304.05,304.06v-42H276.61v42a5.77,5.77,0,0,1-5.7,4.76h38.84A5.77,5.77,0,0,1,304.05,304.06Z"/><rect class="cls-8" x="108.99" y="43.93" width="345.98" height="228.43" rx="16.11"/><rect class="cls-9" x="174.36" y="-8.21" width="215.23" height="332.72" rx="12.63" transform="translate(440.12 -123.83) rotate(90)"/><path class="cls-8" d="M164.5,308.82h254a9,9,0,0,1,9,9v.92a0,0,0,0,1,0,0h-272a0,0,0,0,1,0,0v-.92a9,9,0,0,1,9-9Z"/><path class="cls-8" d="M354.51,95.68a.37.37,0,0,1-.34-.23c-.19-.45-.39-.89-.59-1.33a.37.37,0,0,1,.19-.49.37.37,0,0,1,.48.18c.21.45.41.9.6,1.36a.38.38,0,0,1-.2.48Z"/><path class="cls-8" d="M307.66,165.68c-.57,0-1.15,0-1.71,0a.37.37,0,0,1-.35-.38.36.36,0,0,1,.38-.35c1,0,2,0,2.95,0a.37.37,0,1,1,0,.73Zm6.1-.36a.37.37,0,0,1-.37-.33.36.36,0,0,1,.32-.4c1-.12,2-.27,2.92-.44a.38.38,0,0,1,.43.3.36.36,0,0,1-.3.42c-1,.18-2,.33-3,.44Zm-12.61-.06h0c-1-.13-2-.29-3-.47a.37.37,0,1,1,.14-.72c1,.18,1.94.33,2.92.46a.37.37,0,0,1-.05.73Zm20.26-1.45a.38.38,0,0,1-.36-.27.37.37,0,0,1,.26-.45c.94-.26,1.89-.56,2.81-.87a.36.36,0,0,1,.47.22.36.36,0,0,1-.23.47c-.93.32-1.9.62-2.86.89Zm-27.89-.14h-.11c-1-.28-1.91-.59-2.85-.93a.35.35,0,0,1-.22-.46.38.38,0,0,1,.47-.23c.92.33,1.87.64,2.81.91a.37.37,0,0,1,.25.46A.36.36,0,0,1,293.52,163.67Zm35.21-2.52a.36.36,0,0,1-.33-.22.35.35,0,0,1,.18-.48c.88-.41,1.77-.84,2.64-1.3a.37.37,0,0,1,.35.65c-.88.46-1.79.9-2.69,1.31A.28.28,0,0,1,328.73,161.15Zm6.82-3.76a.38.38,0,0,1-.31-.16.37.37,0,0,1,.11-.51c.82-.54,1.63-1.11,2.41-1.69a.37.37,0,0,1,.52.08.36.36,0,0,1-.08.51c-.79.59-1.62,1.17-2.45,1.71A.36.36,0,0,1,335.55,157.39Zm6.16-4.75a.37.37,0,0,1-.27-.13.35.35,0,0,1,0-.51c.72-.66,1.44-1.34,2.13-2a.37.37,0,0,1,.52.52c-.7.7-1.42,1.4-2.16,2.06A.39.39,0,0,1,341.71,152.64Zm5.37-5.64a.36.36,0,0,1-.24-.09.36.36,0,0,1,0-.51c.62-.76,1.22-1.55,1.79-2.34a.38.38,0,0,1,.52-.08.37.37,0,0,1,.08.51c-.58.8-1.19,1.6-1.82,2.37A.37.37,0,0,1,347.08,147Zm4.43-6.39a.41.41,0,0,1-.18-.05.35.35,0,0,1-.13-.5c.49-.85,1-1.72,1.41-2.59a.38.38,0,0,1,.5-.16.36.36,0,0,1,.16.49c-.45.89-.93,1.77-1.44,2.63A.38.38,0,0,1,351.51,140.61Zm3.41-7a.31.31,0,0,1-.13,0,.37.37,0,0,1-.21-.48c.36-.9.69-1.84,1-2.77a.37.37,0,0,1,.7.23c-.31.94-.65,1.89-1,2.81A.35.35,0,0,1,354.92,133.62Zm2.29-7.44h-.09a.36.36,0,0,1-.27-.43c.21-1,.4-1.93.55-2.89a.37.37,0,1,1,.73.12c-.16,1-.35,2-.57,2.93A.35.35,0,0,1,357.21,126.18Zm1.1-7.69h0a.37.37,0,0,1-.34-.39c.06-1,.1-2,.11-2.94a.36.36,0,0,1,.36-.36h0a.37.37,0,0,1,.36.37c0,1,0,2-.1,3A.38.38,0,0,1,358.31,118.49Zm-.09-7.77a.37.37,0,0,1-.37-.33c-.08-1-.2-2-.34-2.92a.37.37,0,0,1,.73-.11c.14,1,.26,2,.34,3a.36.36,0,0,1-.33.4ZM357,103.06a.38.38,0,0,1-.36-.28c-.24-1-.5-1.91-.79-2.84a.37.37,0,0,1,.24-.46.36.36,0,0,1,.46.25c.3.94.57,1.91.8,2.87a.37.37,0,0,1-.27.45Z"/><path class="cls-8" d="M286.19,160.91a.29.29,0,0,1-.16,0l-1.33-.64a.37.37,0,0,1-.16-.5.36.36,0,0,1,.49-.16l1.31.64a.37.37,0,0,1-.15.7Z"/><path class="cls-8" d="M259.9,132a.36.36,0,0,1-.34-.25c-.17-.46-.32-.93-.48-1.4a.37.37,0,0,1,.24-.46.38.38,0,0,1,.47.24c.14.46.3.92.46,1.38a.37.37,0,0,1-.22.47Z"/><path class="cls-8" d="M258.2,126.06a.37.37,0,0,1-.36-.29c-.21-1-.4-1.92-.55-2.89a.36.36,0,0,1,.3-.42.38.38,0,0,1,.43.31c.15,1,.33,1.9.54,2.84a.37.37,0,0,1-.28.44Zm-1.08-7.58a.38.38,0,0,1-.37-.34c-.06-1-.1-2-.11-2.93a.36.36,0,0,1,.37-.37h0a.37.37,0,0,1,.37.36c0,1,0,1.93.11,2.89a.37.37,0,0,1-.34.39Zm.07-7.64h0a.38.38,0,0,1-.34-.4c.08-1,.2-2,.34-2.92a.36.36,0,0,1,.41-.31.37.37,0,0,1,.31.42c-.13,1-.24,1.92-.32,2.87A.38.38,0,0,1,257.19,110.84Zm1.23-7.55h-.09a.36.36,0,0,1-.27-.44c.23-1,.49-1.91.77-2.84a.37.37,0,0,1,.46-.24.35.35,0,0,1,.25.45c-.28.92-.54,1.87-.77,2.8A.36.36,0,0,1,258.42,103.29ZM260.78,96a.37.37,0,0,1-.34-.5c.37-.91.78-1.81,1.2-2.69a.37.37,0,1,1,.66.32c-.42.86-.81,1.76-1.18,2.64A.35.35,0,0,1,260.78,96Zm3.44-6.83a.3.3,0,0,1-.18-.06.35.35,0,0,1-.13-.5c.5-.83,1-1.67,1.59-2.47a.37.37,0,1,1,.61.41c-.55.79-1.07,1.62-1.57,2.44A.38.38,0,0,1,264.22,89.18Zm4.44-6.24a.37.37,0,0,1-.28-.6c.62-.76,1.28-1.5,1.94-2.21a.37.37,0,0,1,.54.5c-.65.7-1.3,1.43-1.91,2.17A.38.38,0,0,1,268.66,82.94ZM274,77.43a.39.39,0,0,1-.28-.12.38.38,0,0,1,0-.52c.73-.65,1.49-1.28,2.26-1.89a.36.36,0,0,1,.51.06.37.37,0,0,1-.06.52c-.75.59-1.5,1.22-2.22,1.86A.36.36,0,0,1,274,77.43Zm6.09-4.64a.37.37,0,0,1-.2-.68c.82-.53,1.66-1,2.51-1.52a.37.37,0,0,1,.51.13.36.36,0,0,1-.14.5c-.84.48-1.67,1-2.48,1.51A.36.36,0,0,1,280.08,72.79Zm6.73-3.67a.38.38,0,0,1-.34-.22.36.36,0,0,1,.19-.48c.89-.4,1.8-.79,2.72-1.14a.37.37,0,0,1,.47.21.37.37,0,0,1-.21.48c-.9.34-1.8.72-2.68,1.11A.28.28,0,0,1,286.81,69.12Zm40.2-.69a.32.32,0,0,1-.14,0c-.89-.37-1.81-.71-2.72-1a.37.37,0,0,1,.24-.7c.93.32,1.85.67,2.76,1a.37.37,0,0,1-.14.71Zm-33-1.92a.36.36,0,0,1-.35-.27.36.36,0,0,1,.25-.45c.94-.27,1.91-.5,2.86-.71a.37.37,0,0,1,.44.28.36.36,0,0,1-.28.43c-.94.21-1.89.44-2.82.7Zm25.69-.45h-.09c-.93-.23-1.89-.43-2.84-.6a.38.38,0,0,1-.3-.43.36.36,0,0,1,.43-.29c1,.17,1.94.38,2.89.61a.37.37,0,0,1-.09.72Zm-18.17-1a.36.36,0,0,1-.36-.32.38.38,0,0,1,.32-.41c.87-.1,1.75-.19,2.62-.25l.32,0a.38.38,0,0,1,.39.34.38.38,0,0,1-.35.39l-.3,0c-.86.06-1.73.15-2.59.25Zm10.59-.19h0c-1-.08-1.94-.14-2.9-.16a.38.38,0,0,1-.36-.38.38.38,0,0,1,.38-.36c1,0,2,.09,2.95.17a.37.37,0,0,1,0,.73Z"/><path class="cls-8" d="M332.63,71.16a.41.41,0,0,1-.18,0c-.42-.24-.85-.47-1.28-.7a.38.38,0,0,1-.16-.5.38.38,0,0,1,.5-.15c.44.23.87.47,1.3.71a.36.36,0,0,1,.14.5A.37.37,0,0,1,332.63,71.16Z"/><path class="cls-10" d="M331,83.66a.61.61,0,0,0-.7-.08l-6.53,3.48a32.56,32.56,0,0,0-9.81-3.62l-2.68-6.87a.61.61,0,0,0-.59-.39l-8.87.34a.61.61,0,0,0-.56.43L299.1,84a32.23,32.23,0,0,0-9.5,4.36l-6.78-3a.62.62,0,0,0-.69.15l-6,6.49a.62.62,0,0,0-.09.7l3.5,6.5a32.18,32.18,0,0,0-3.63,9.77l-6.9,2.67a.61.61,0,0,0-.38.59l.34,8.85a.6.6,0,0,0,.43.55l7.08,2.14a32.4,32.4,0,0,0,4.37,9.46l-3,6.75a.59.59,0,0,0,.14.69l6.52,6a.6.6,0,0,0,.7.08l6.53-3.48a32.6,32.6,0,0,0,9.8,3.62l2.68,6.87a.62.62,0,0,0,.59.39l8.88-.34a.62.62,0,0,0,.56-.43l2.14-7.06a32.35,32.35,0,0,0,9.5-4.36l6.77,3a.63.63,0,0,0,.7-.15l6-6.49a.59.59,0,0,0,.09-.7l-3.49-6.5a32.16,32.16,0,0,0,3.62-9.77l6.9-2.67a.6.6,0,0,0,.39-.59l-.34-8.85a.6.6,0,0,0-.43-.55L339,106.58a31.89,31.89,0,0,0-4.37-9.46l3-6.75a.6.6,0,0,0-.15-.69Z"/><path class="cls-11" d="M307.72,123.6a8.41,8.41,0,0,1-2.37-16.48,8.45,8.45,0,0,1,10.48,5.7,8.41,8.41,0,0,1-5.72,10.44A8.52,8.52,0,0,1,307.72,123.6Zm0-15.72a7.35,7.35,0,0,0-2.07.3,7.31,7.31,0,1,0,8.5,10.51,7.19,7.19,0,0,0,.6-5.56,7.31,7.31,0,0,0-7-5.25Z"/><path class="cls-11" d="M307.61,137.25a22,22,0,0,1-22-21.07c0-.29,0-.58,0-.86a21.94,21.94,0,0,1,21.14-21.88h.86a22,22,0,0,1,3.81.33l-.19,1.08a21.86,21.86,0,0,0-4.43-.3,20.85,20.85,0,0,0-20.09,20.78c0,.27,0,.54,0,.82a20.88,20.88,0,0,0,41.75-.79c0-.27,0-.54,0-.81A20.74,20.74,0,0,0,325.12,104l.92-.61a21.81,21.81,0,0,1,3.55,11.13c0,.28,0,.57,0,.85a22,22,0,0,1-21.15,21.88Z"/><path class="cls-8" d="M262.34,135.08a.35.35,0,0,1-.34-.23c-.18-.44-.38-.89-.58-1.32a.36.36,0,0,1,.17-.49.36.36,0,0,1,.49.18c.21.44.41.9.6,1.36a.37.37,0,0,1-.34.5Z"/><path class="cls-8" d="M236.94,174.42a.36.36,0,0,1-.36-.35.35.35,0,0,1,.35-.38l1.2-.08c.58-.05,1.17-.11,1.74-.2a.37.37,0,0,1,.42.31.39.39,0,0,1-.32.42c-.58.08-1.18.15-1.78.2-.41,0-.82.06-1.23.08Zm-4.85-.21H232a30,30,0,0,1-3-.54.37.37,0,0,1,.17-.71,28.59,28.59,0,0,0,2.91.52.37.37,0,0,1,0,.73ZM244.65,173a.35.35,0,0,1-.35-.25.36.36,0,0,1,.24-.46c.93-.3,1.85-.66,2.75-1.05a.37.37,0,0,1,.49.18.37.37,0,0,1-.19.49c-.92.4-1.87.77-2.83,1.08Zm7-3.4a.4.4,0,0,1-.31-.16.37.37,0,0,1,.11-.51,28.91,28.91,0,0,0,2.36-1.76.37.37,0,0,1,.52,0,.36.36,0,0,1-.05.51c-.77.64-1.59,1.25-2.42,1.81A.42.42,0,0,1,251.69,169.64Zm5.86-5.18a.36.36,0,0,1-.24-.09.35.35,0,0,1,0-.51c.63-.75,1.24-1.53,1.8-2.33a.37.37,0,0,1,.51-.1.36.36,0,0,1,.09.51,26.73,26.73,0,0,1-1.85,2.39A.34.34,0,0,1,257.55,164.46Zm4.23-6.56-.15,0a.38.38,0,0,1-.18-.49,26.9,26.9,0,0,0,1.11-2.73.37.37,0,1,1,.69.24,28.24,28.24,0,0,1-1.13,2.8A.38.38,0,0,1,261.78,157.9Zm2.31-7.46H264a.37.37,0,0,1-.31-.42,28.83,28.83,0,0,0,.32-2.93.37.37,0,0,1,.39-.34.35.35,0,0,1,.34.38,27,27,0,0,1-.32,3A.37.37,0,0,1,264.09,150.44Zm.18-7.8a.36.36,0,0,1-.37-.32,28.28,28.28,0,0,0-.48-2.9.37.37,0,0,1,.28-.44.37.37,0,0,1,.44.28,29.85,29.85,0,0,1,.49,3,.35.35,0,0,1-.32.4Z"/><path class="cls-8" d="M224.51,172.16l-.14,0c-.46-.19-.91-.4-1.36-.62a.36.36,0,0,1-.16-.49.37.37,0,0,1,.49-.17c.43.21.88.42,1.32.61a.37.37,0,0,1-.15.7Z"/><path class="cls-8" d="M208.85,155.75a.38.38,0,0,1-.35-.24c-.17-.46-.33-.93-.48-1.4a.37.37,0,1,1,.7-.22c.15.46.3.92.47,1.37a.37.37,0,0,1-.22.47A.25.25,0,0,1,208.85,155.75Z"/><path class="cls-8" d="M207.34,149.72a.37.37,0,0,1-.36-.32c-.07-.5-.13-1-.17-1.49s-.07-1-.08-1.47a.37.37,0,0,1,.35-.38.36.36,0,0,1,.38.36c0,.47,0,1,.09,1.43s.09,1,.16,1.45a.37.37,0,0,1-.32.41Zm0-7.68h-.05a.36.36,0,0,1-.31-.41,28.84,28.84,0,0,1,.54-2.92.37.37,0,0,1,.45-.27.35.35,0,0,1,.27.44,24.91,24.91,0,0,0-.53,2.84A.38.38,0,0,1,207.33,142Zm2-7.4-.15,0a.37.37,0,0,1-.19-.48,28.69,28.69,0,0,1,1.31-2.67.36.36,0,0,1,.5-.14.38.38,0,0,1,.15.5,27.24,27.24,0,0,0-1.28,2.6A.39.39,0,0,1,209.38,134.64Zm4-6.59a.4.4,0,0,1-.23-.08.38.38,0,0,1-.06-.52c.62-.77,1.29-1.52,2-2.22a.37.37,0,0,1,.52,0,.37.37,0,0,1,0,.52c-.67.69-1.32,1.42-1.92,2.17A.37.37,0,0,1,213.33,128.05Zm5.56-5.31a.35.35,0,0,1-.29-.15.36.36,0,0,1,.08-.51,28.66,28.66,0,0,1,2.49-1.62.37.37,0,1,1,.37.63,27.29,27.29,0,0,0-2.43,1.58A.34.34,0,0,1,218.89,122.74Zm6.78-3.64a.35.35,0,0,1-.34-.24.36.36,0,0,1,.21-.47,28.54,28.54,0,0,1,2.85-.9.37.37,0,0,1,.44.26.36.36,0,0,1-.26.45,27.8,27.8,0,0,0-2.77.88Zm18.08-.7h-.11a26.85,26.85,0,0,0-2.82-.66.37.37,0,0,1-.3-.43.38.38,0,0,1,.43-.3c1,.18,2,.41,2.9.68a.37.37,0,0,1-.1.72Zm-10.57-1a.38.38,0,0,1-.36-.34.37.37,0,0,1,.33-.4h.19c.82-.07,1.64-.1,2.46-.1h.33a.36.36,0,0,1,.36.37.35.35,0,0,1-.37.36h-.32c-.8,0-1.6,0-2.4.1h-.22Z"/><path class="cls-8" d="M249.53,120.78a.33.33,0,0,1-.17,0c-.42-.23-.86-.45-1.29-.66a.37.37,0,0,1-.18-.49.38.38,0,0,1,.5-.17c.44.21.89.44,1.32.68a.36.36,0,0,1-.18.68Z"/><path class="cls-10" d="M248.69,127.71a.35.35,0,0,0-.39,0l-3.67,2a18.12,18.12,0,0,0-5.57-2l-1.57-3.87a.35.35,0,0,0-.34-.22l-5,.26a.35.35,0,0,0-.31.25l-1.16,4a18.47,18.47,0,0,0-5.34,2.53l-3.85-1.63a.35.35,0,0,0-.39.08l-3.37,3.72a.35.35,0,0,0-.05.4l2,3.65a18.35,18.35,0,0,0-2,5.56L213.83,144a.33.33,0,0,0-.22.33l.26,5a.35.35,0,0,0,.25.32l4,1.15a18,18,0,0,0,2.55,5.32L219.05,160a.35.35,0,0,0,.08.39l3.74,3.36a.35.35,0,0,0,.39,0l3.67-2a18.5,18.5,0,0,0,5.57,2l1.57,3.87a.35.35,0,0,0,.34.21l5-.26a.35.35,0,0,0,.31-.25l1.16-4a18.22,18.22,0,0,0,5.34-2.53l3.85,1.63a.35.35,0,0,0,.4-.08l3.36-3.72a.35.35,0,0,0,.05-.4l-2-3.65a18.38,18.38,0,0,0,2-5.55l3.88-1.57a.33.33,0,0,0,.22-.33l-.26-5a.37.37,0,0,0-.25-.32l-4-1.15a18,18,0,0,0-2.55-5.32l1.64-3.84a.35.35,0,0,0-.08-.39Z"/><path class="cls-11" d="M235.77,150.72a5.06,5.06,0,0,1-2.33-.58,5,5,0,0,1,.86-9.19,5,5,0,1,1,3,9.55A5.07,5.07,0,0,1,235.77,150.72Zm0-8.9a3.9,3.9,0,0,0-3.75,5.05,3.9,3.9,0,0,0,4.89,2.57,3.88,3.88,0,0,0,.68-7.16A3.81,3.81,0,0,0,235.79,141.82Z"/><path class="cls-11" d="M235.71,158.44a12.68,12.68,0,0,1-12.66-12c0-.22,0-.44,0-.66a12.67,12.67,0,0,1,12-12.61h.29a12.69,12.69,0,0,1,1.51,0c.3,0,.59.06.89.11h0l-.18,1.09a11.25,11.25,0,0,0-2.46-.13,11.55,11.55,0,0,0-11,11.5c0,.2,0,.41,0,.61a11.56,11.56,0,0,0,11.55,10.94c.2,0,.4,0,.6,0a11.55,11.55,0,0,0,11-11.5c0-.2,0-.41,0-.61a11.46,11.46,0,0,0-1.95-5.83l.92-.61a12.65,12.65,0,0,1,2.13,6.38c0,.23,0,.45,0,.67a12.65,12.65,0,0,1-12,12.6Z"/><path class="cls-8" d="M332.65,189a.38.38,0,0,1-.35-.23c-.18-.44-.37-.89-.58-1.32a.37.37,0,0,1,.18-.49.37.37,0,0,1,.49.17c.21.45.41.91.6,1.37a.37.37,0,0,1-.21.47A.31.31,0,0,1,332.65,189Z"/><path class="cls-8" d="M307.25,228.36a.37.37,0,0,1,0-.74c.4,0,.8,0,1.2-.07.59-.05,1.17-.12,1.74-.2a.37.37,0,0,1,.11.73c-.59.08-1.19.15-1.79.2-.41,0-.82.06-1.23.08Zm-4.85-.21h0a30,30,0,0,1-3-.54.36.36,0,0,1-.27-.44.35.35,0,0,1,.44-.27,28.4,28.4,0,0,0,2.9.52.37.37,0,0,1,.32.41A.36.36,0,0,1,302.4,228.15ZM315,227a.37.37,0,0,1-.35-.25.36.36,0,0,1,.23-.46,28,28,0,0,0,2.76-1.06.36.36,0,0,1,.48.19.36.36,0,0,1-.18.48,29.47,29.47,0,0,1-2.83,1.09Zm7-3.4a.38.38,0,0,1-.31-.16.37.37,0,0,1,.1-.51c.82-.55,1.61-1.14,2.37-1.76a.37.37,0,1,1,.47.56c-.78.64-1.59,1.25-2.43,1.81A.36.36,0,0,1,322,223.58Zm5.85-5.18a.37.37,0,0,1-.28-.61,25.37,25.37,0,0,0,1.8-2.33.39.39,0,0,1,.52-.09.37.37,0,0,1,.09.51,26.73,26.73,0,0,1-1.85,2.39A.35.35,0,0,1,327.85,218.4Zm4.24-6.56a.4.4,0,0,1-.15,0,.36.36,0,0,1-.18-.49c.41-.89.78-1.81,1.1-2.73a.37.37,0,1,1,.7.24c-.33.95-.71,1.89-1.13,2.8A.39.39,0,0,1,332.09,211.84Zm2.3-7.46h-.06a.36.36,0,0,1-.3-.42c.15-1,.26-2,.32-2.93a.35.35,0,0,1,.38-.34.36.36,0,0,1,.35.38,27,27,0,0,1-.33,3A.36.36,0,0,1,334.39,204.38Zm.18-7.8a.36.36,0,0,1-.36-.32,27.83,27.83,0,0,0-.48-2.9.36.36,0,0,1,.28-.44.37.37,0,0,1,.44.28,29.85,29.85,0,0,1,.49,3,.36.36,0,0,1-.32.4Z"/><path class="cls-8" d="M294.82,226.1a.32.32,0,0,1-.14,0c-.46-.2-.91-.4-1.36-.62a.37.37,0,0,1-.17-.49.38.38,0,0,1,.5-.17c.43.21.87.42,1.32.6a.38.38,0,0,1,.19.49A.39.39,0,0,1,294.82,226.1Z"/><path class="cls-8" d="M279.15,209.69a.35.35,0,0,1-.34-.24c-.17-.46-.33-.93-.48-1.4a.37.37,0,1,1,.7-.22c.14.46.3.92.47,1.37a.37.37,0,0,1-.22.47A.3.3,0,0,1,279.15,209.69Z"/><path class="cls-8" d="M277.65,203.66a.38.38,0,0,1-.37-.32c-.06-.5-.12-1-.16-1.49s-.07-1-.09-1.47a.38.38,0,0,1,.36-.38.36.36,0,0,1,.38.35c0,.48,0,1,.08,1.44s.1,1,.16,1.45a.36.36,0,0,1-.31.41Zm0-7.68h-.05a.39.39,0,0,1-.32-.42c.14-1,.32-2,.55-2.92a.37.37,0,0,1,.72.18,27.34,27.34,0,0,0-.54,2.84A.36.36,0,0,1,277.64,196Zm2-7.4-.14,0a.36.36,0,0,1-.19-.48,28.69,28.69,0,0,1,1.31-2.67.37.37,0,0,1,.64.36,27.24,27.24,0,0,0-1.28,2.6A.38.38,0,0,1,279.68,188.58Zm4-6.59a.4.4,0,0,1-.23-.08.37.37,0,0,1-.06-.52c.62-.77,1.28-1.52,2-2.22a.37.37,0,0,1,.53.51c-.67.69-1.32,1.42-1.92,2.17A.38.38,0,0,1,283.64,182Zm5.56-5.31a.38.38,0,0,1-.3-.15A.37.37,0,0,1,289,176a28.82,28.82,0,0,1,2.5-1.62.35.35,0,0,1,.5.13.36.36,0,0,1-.13.5,27.29,27.29,0,0,0-2.43,1.58A.36.36,0,0,1,289.2,176.68ZM296,173a.35.35,0,0,1-.34-.24.36.36,0,0,1,.21-.47,28.36,28.36,0,0,1,2.84-.9.37.37,0,0,1,.19.71,27,27,0,0,0-2.77.88Zm18.07-.7H314a27,27,0,0,0-2.83-.66.37.37,0,0,1,.13-.73c1,.18,2,.41,2.91.68a.38.38,0,0,1,.25.46A.38.38,0,0,1,314.05,172.34Zm-10.56-1a.38.38,0,0,1-.37-.34.38.38,0,0,1,.34-.4h.19c.81-.07,1.64-.11,2.45-.11h.34a.37.37,0,0,1,0,.73h-.33c-.79,0-1.6,0-2.39.1h-.22Z"/><path class="cls-8" d="M319.84,174.72a.39.39,0,0,1-.18,0q-.65-.36-1.29-.66a.37.37,0,0,1-.17-.49.36.36,0,0,1,.49-.17c.44.21.89.44,1.33.68a.35.35,0,0,1,.14.49A.36.36,0,0,1,319.84,174.72Z"/><path class="cls-10" d="M319,181.65a.36.36,0,0,0-.4,0l-3.66,2a18.47,18.47,0,0,0-5.58-2l-1.56-3.86a.35.35,0,0,0-.34-.22l-5,.26a.34.34,0,0,0-.31.25l-1.16,4a18.1,18.1,0,0,0-5.34,2.53L291.77,183a.36.36,0,0,0-.39.08L288,186.79a.35.35,0,0,0,0,.4l2,3.65a17.83,17.83,0,0,0-2,5.56L284.13,198a.34.34,0,0,0-.21.33l.26,5a.35.35,0,0,0,.25.32l4,1.15a18.26,18.26,0,0,0,2.54,5.32l-1.64,3.84a.35.35,0,0,0,.09.39l3.73,3.36a.36.36,0,0,0,.4,0l3.67-2a18.12,18.12,0,0,0,5.57,2l1.57,3.87a.33.33,0,0,0,.33.22l5-.26a.35.35,0,0,0,.32-.25l1.16-4a18.22,18.22,0,0,0,5.34-2.53l3.85,1.63a.35.35,0,0,0,.39-.08l3.37-3.72a.35.35,0,0,0,0-.4l-2-3.65a18.35,18.35,0,0,0,2-5.56l3.88-1.56a.35.35,0,0,0,.22-.33l-.26-5a.35.35,0,0,0-.25-.32l-4-1.15a18,18,0,0,0-2.54-5.32l1.64-3.84a.34.34,0,0,0-.09-.39Z"/><path class="cls-11" d="M306.08,204.66a5.1,5.1,0,0,1-2.34-.58,5,5,0,1,1,3.82.36A5.3,5.3,0,0,1,306.08,204.66Zm0-8.9a3.78,3.78,0,0,0-1.15.18,3.89,3.89,0,1,0,2.3,7.44,3.9,3.9,0,0,0-1.15-7.62Z"/><path class="cls-11" d="M306,212.38a12.68,12.68,0,0,1-12.66-12c0-.22,0-.44,0-.66a12.67,12.67,0,0,1,12-12.61h.28a12.8,12.8,0,0,1,1.52,0c.29,0,.59.06.88.11h0l-.17,1.09a11.25,11.25,0,0,0-2.46-.13h-.05a11.56,11.56,0,0,0-10.93,11.51c0,.2,0,.4,0,.6A11.57,11.57,0,0,0,306,211.28l.6,0a11.56,11.56,0,0,0,11-11.51c0-.2,0-.4,0-.6a11.55,11.55,0,0,0-1.94-5.83l.91-.61a12.56,12.56,0,0,1,2.14,6.38c0,.22,0,.44,0,.66a12.67,12.67,0,0,1-12,12.61Z"/><rect class="cls-5" x="194.61" y="243.71" width="76.3" height="6.82" rx="3.09"/><rect class="cls-12" x="194.61" y="243.71" width="171.64" height="6.82" rx="3.09"/><rect class="cls-8" x="404.19" y="161.91" width="6.94" height="156.84"/><path class="cls-8" d="M437.24,191.27a14,14,0,0,1-14,14H391.93a14,14,0,0,1-14-14V160.09a14,14,0,0,1,14-14h31.28a14,14,0,0,1,14,14Z"/><path class="cls-11" d="M434.09,189.2a12.45,12.45,0,0,1-12.47,12.43H393.75a12.45,12.45,0,0,1-12.46-12.43V161.43A12.44,12.44,0,0,1,393.75,149h27.87a12.44,12.44,0,0,1,12.47,12.42Z"/><path class="cls-13" d="M396.37,160.09l-3.14-1.54a.8.8,0,0,0-.88.09L392,159l-.55.49-.35.32a.78.78,0,0,0-.19.86l1.2,3.26a1.54,1.54,0,0,0,1.12,1l2.12.46,13.73,15.19.78-.7.55-.49.85-.77-13.72-15.19-.28-2.1A1.54,1.54,0,0,0,396.37,160.09Z"/><path class="cls-5" d="M423.14,186.16l-10.82-9.62-5.47,4.92,8.33,11.46a7.19,7.19,0,0,0,3.09,2.44l3.32,1.41a1.61,1.61,0,0,0,1.7-.24l2.27-2A1.61,1.61,0,0,0,426,193l-.55-2.77A7.42,7.42,0,0,0,423.14,186.16Z"/><path class="cls-14" d="M412.86,175.92a.9.9,0,0,1-.07,1.27l-5.47,4.91A.91.91,0,0,1,406,182L406,182a.89.89,0,0,1,.06-1.27l5.48-4.91a.91.91,0,0,1,1.27.06Z"/><path class="cls-14" d="M421,193.16a.76.76,0,0,1-.06,1.08h0a.77.77,0,0,1-1.09-.05l-10.32-11.42a.77.77,0,0,1,.06-1.08h0a.76.76,0,0,1,1.09.06Z"/><path class="cls-14" d="M423.69,190.73a.77.77,0,0,1-.06,1.09h0a.77.77,0,0,1-1.09-.06l-10.32-11.41a.76.76,0,0,1,.06-1.08h0a.77.77,0,0,1,1.09,0Z"/><path class="cls-13" d="M418.64,158.73l-4.24,3.94a1.31,1.31,0,0,0-.41,1.09l.19,2.1a1.33,1.33,0,0,0,1.11,1.18l2.08.34a1.33,1.33,0,0,0,1.13-.33l4.23-3.94a1,1,0,0,1,1.72.71,7.58,7.58,0,0,1-2.46,5.77A7.24,7.24,0,0,1,412.1,159a7.67,7.67,0,0,1,6-2A1,1,0,0,1,418.64,158.73Z"/><path class="cls-13" d="M389.53,185.92l-.73.68c-1.25,1.16-1.63,2.79-.84,3.63l.94,1c.78.84,2.44.58,3.69-.58l.73-.68a1.85,1.85,0,0,0,.14-.14l20.77-21-2-2.18-22.51,19.17Zm1,1c.94-.87,2.13-1.13,2.65-.57s.18,1.72-.76,2.59-2.13,1.14-2.65.58S389.6,187.76,390.54,186.88Z"/><path class="cls-15" d="M232.76,272.36s-91.19.1-107.88,0c-11.83-.06-16.28-12.44-15.89-15.93v-198c0-6.57,7-14.54,15.64-14.54h248.1Z"/><path class="cls-16" d="M137.13,170l-5.83,5.73a42,42,0,0,1-19.54-6.61c2.94-7.3,5.94-11.64,8.29-14.17A47.89,47.89,0,0,0,137.13,170Z"/><path class="cls-11" d="M96.56,148.55l13.76-21.42a53.91,53.91,0,0,0,9.73,27.8c-2.35,2.53-5.35,6.87-8.29,14.17A37.74,37.74,0,0,1,96.56,148.55Z"/><path class="cls-17" d="M81.94,317.9c6.85.32,13.49.12,17.92-.11-4-2.86-13.33-9.08-21.11-11.56l-5.34-.32s-1.81,2.74-2.45,9C71.84,316,74.43,317.56,81.94,317.9Z"/><path class="cls-18" d="M99.92,317.83l-.06,0c-4.43.23-11.07.43-17.92.11-7.51-.34-10.1-1.87-11-3,0,.29-.06.57-.09.88a2.51,2.51,0,0,0,2.3,2.69c5.62.42,19.54,1.38,26.26,1A.94.94,0,0,0,99.92,317.83Z"/><path class="cls-19" d="M32.89,316.08c-.5-3.21-1.31-7.85-1.93-9-1-1.86-4.32,0-4.32,0a8.89,8.89,0,0,0-3.42,2.9c-.69,1.16-2.59,4.45-3.88,6.69a1.47,1.47,0,0,0-.2.8l13.38.46A2.64,2.64,0,0,0,32.89,316.08Z"/><path class="cls-20" d="M19.14,317.44a1.51,1.51,0,0,0,1.48,1.47l9.53.27a2.72,2.72,0,0,0,2.37-1.28Z"/><path class="cls-21" d="M33.91,296.38c-.11.39-1.84,8.74-2.6,12.41a2.1,2.1,0,0,1-2.16,1.67c-.57,0-1.22-.08-1.91-.17A2.54,2.54,0,0,1,25,307.88c-.12-3.21-.18-9.37,1-11.76C27.66,292.82,33.91,296.38,33.91,296.38Z"/><path class="cls-22" d="M72.36,298.78c.75,0-.29,3.81.83,7.58A1.94,1.94,0,0,0,75,307.89a19.3,19.3,0,0,0,2-.06,2.15,2.15,0,0,0,2-1.93l.91-9.78Z"/><path class="cls-11" d="M93.1,194.76c-.34,1.69-13.32,77.11-12.73,110.08a.43.43,0,0,1-.37.43c-1.54.18-4.88,0-7.64.34-.89.11-2.72.19-3.11.21-3.38.18-4.68.89-11.21,1.58-1.66.18-3.92.08-6.43.49a61.51,61.51,0,0,1-17.22.45c-.48,0-3.16-.24-3.64-.26a27.65,27.65,0,0,1-6.62-1.54A1.76,1.76,0,0,1,23,304.48C25.83,293,47.21,207.46,60.6,190Z"/><path class="cls-11" d="M112.09,109.76c-8.53-2.23-24.27-5.72-36.8-5a5.66,5.66,0,0,0-5.34,5.3c-1.9,33.25-4.48,62.75-9.35,79.92,10.95,4.31,21.8,6.32,32.5,4.75q12-25.68,21-59.33s3.52-17.9.1-23.86A3.53,3.53,0,0,0,112.09,109.76Z"/><path class="cls-11" d="M137.13,170l-5.83,5.73a42,42,0,0,1-19.54-6.61c2.94-7.3,5.94-11.64,8.29-14.17A47.89,47.89,0,0,0,137.13,170Z"/><path class="cls-23" d="M91.57,86.47s-2.15,12.81-2.8,18.73A2.31,2.31,0,0,0,90,107.51c2.35,1.21,7.38,3.16,12.86,1.37a2.16,2.16,0,0,0,1.47-2.11L104,89.68Z"/><path class="cls-24" d="M105.62,72.28s4.16,9.51,4.44,14.51S111.42,95,105.62,96,94.94,94.16,92.3,89.18c0,0-4.14-7.66-3.22-10.8S105.62,72.28,105.62,72.28Z"/><path class="cls-25" d="M94.28,85.61H95s-3-6.17-.36-7.26,13.15-3.22,15.42-6.93a6.89,6.89,0,0,0-2.68-9.5.38.38,0,0,0-.49.18l-.25.46a.39.39,0,0,1-.72-.08h0a.4.4,0,0,0-.71-.11c-.69,1.12-2.57,2.92-7.61,3.85-7.15,1.31-11.88,4.2-12,9.12a.4.4,0,0,1-.61.32c-.53-.32-1.38-.47-2.5.48-2,1.64-1.16,5.91,3.14,9.42a.39.39,0,0,1,0,.63c-.78.5-1.94,1.71,1.07,3.31s4.91,1.47,5.6,1.29a.4.4,0,0,0,.3-.4L92.32,86a.4.4,0,0,1,.4-.41Z"/><path class="cls-26" d="M94.46,86.52s-1.59-6.08-4.32-4.38,1.42,6.81,3.62,7Z"/><path class="cls-8" d="M18.06,185.16l-5,1.26C4.52,188.57-1.23,195,.23,200.72L2,207.56c1.46,5.75,9.57,8.66,18.13,6.5l5-1.25,1-.27L172.25,169l-3.77-14.89L19.06,184.93ZM20.21,192c6.44-1.62,12.45.15,13.41,4s-3.47,8.22-9.91,9.84-12.44-.15-13.41-4S13.77,193.6,20.21,192Z"/><path class="cls-8" d="M217.09,133.84l-28.93,7.28a6.85,6.85,0,0,0-4.61,3.91L179.22,155a6.83,6.83,0,0,0,2.05,8.08l8.56,6.71a6.85,6.85,0,0,0,5.91,1.25l28.93-7.28a5.25,5.25,0,0,1,6,7.42,39.33,39.33,0,0,1-25.48,20c-20.8,5.24-39.22-7.32-44.27-27.25s5.15-39.71,25.95-44.95a39.49,39.49,0,0,1,32,5.52A5.24,5.24,0,0,1,217.09,133.84Z"/><path class="cls-27" d="M217.78,136.55l-28.93,7.29a6.84,6.84,0,0,0-4.61,3.9l-4.33,10a6.81,6.81,0,0,0,2.05,8.07l8.56,6.71a6.86,6.86,0,0,0,5.91,1.26l28.93-7.29a5.25,5.25,0,0,1,6,7.43,39.36,39.36,0,0,1-25.48,20c-20.81,5.24-39.22-7.32-44.28-27.26s5.16-39.7,26-44.94a39.49,39.49,0,0,1,32,5.51A5.24,5.24,0,0,1,217.78,136.55Z"/><path class="cls-27" d="M18.61,187.33l-5,1.25C5.07,190.74-.68,197.14.78,202.89l1.73,6.83c1.46,5.75,9.57,8.66,18.13,6.51l5-1.26c.33-.08.65-.17,1-.27L172.8,171.12,169,156.23,19.61,187.1C19.27,187.17,18.94,187.24,18.61,187.33Zm2.15,6.82c6.44-1.63,12.45.15,13.41,4s-3.47,8.22-9.91,9.85-12.44-.16-13.41-4S14.32,195.77,20.76,194.15Z"/><path class="cls-28" d="M47.87,154C43.65,165.83,46,178.48,46,178.48L40.46,180s-7.18-8.52-5.54-27.41A27.14,27.14,0,0,1,47.87,154Z"/><path class="cls-11" d="M34.92,152.55c.19-2.13.48-4.38.91-6.77,3.76-20.84,30.57-36.87,36.88-40.38a.87.87,0,0,1,1.28.79l-.9,28.33c-14.93,2-22,10.51-25.22,19.52A27.14,27.14,0,0,0,34.92,152.55Z"/><path class="cls-29" d="M148.86,180.37a3.58,3.58,0,0,0,2.33-2c.86-1.91,1.82-5-.24-5.9-3-1.38-8.62,4.3-8.62,4.3l-2.71,4.39-2.49,1.2C139.41,183,143.8,182,148.86,180.37Z"/><path class="cls-30" d="M45,178.42h5.37s-4.36,2.6-4.5,5.34,1.73,8.42,2.61,10c1,1.69-12.17-2.51-7.54-15.3Z"/><path class="cls-11" d="M47.87,154C43.65,165.83,46,178.48,46,178.48L40.46,180s-7.18-8.52-5.54-27.41A27.14,27.14,0,0,1,47.87,154Z"/></svg>