<svg id="Layer_1" data-name="Layer 1" xmlns="http://www.w3.org/2000/svg" xmlns:xlink="http://www.w3.org/1999/xlink" viewBox="0 0 767.04 527.04"><defs><style>.cls-1{fill:#e2b674;}.cls-2{fill:#ffd494;}.cls-3{fill:#f89c53;}.cls-4{fill:#465477;}.cls-5{fill:#f26f6f;}.cls-6{fill:#e1e1e1;}.cls-7{fill:#ececec;}.cls-8{fill:#4b4c61;}.cls-11,.cls-15,.cls-9{fill:#fff;}.cls-12,.cls-9{stroke:#4b4c61;stroke-miterlimit:10;}.cls-10{fill:#8fdd66;}.cls-12{fill:none;stroke-width:0.5px;}.cls-13{fill:#f6ca65;}.cls-14{fill:#ff9d9d;}.cls-15{opacity:0.35;}.cls-16{fill:url(#linear-gradient);}.cls-17{fill:url(#linear-gradient-2);}.cls-18{fill:url(#linear-gradient-3);}.cls-19{fill:url(#linear-gradient-4);}.cls-20{fill:url(#linear-gradient-5);}.cls-21{fill:url(#linear-gradient-6);}.cls-22{fill:url(#linear-gradient-7);}.cls-23{fill:url(#linear-gradient-8);}.cls-24{fill:url(#linear-gradient-9);}.cls-25{fill:url(#linear-gradient-10);}.cls-26{fill:url(#linear-gradient-11);}.cls-27{fill:#02a4d3;}.cls-28{fill:url(#linear-gradient-12);}.cls-29{fill:url(#linear-gradient-13);}.cls-30{fill:url(#linear-gradient-14);}</style><linearGradient id="linear-gradient" x1="-643.76" y1="299.91" x2="-615.88" y2="373.78" gradientTransform="matrix(-1, 0, 0, 1, -408.76, 0)" gradientUnits="userSpaceOnUse"><stop offset="0" stop-color="#f9b776"/><stop offset="1" stop-color="#f47960"/></linearGradient><linearGradient id="linear-gradient-2" x1="6676.17" y1="446.65" x2="6703.85" y2="446.65" gradientTransform="translate(-6496.2)" gradientUnits="userSpaceOnUse"><stop offset="0" stop-color="#4d4d4d"/><stop offset="1" stop-color="#1a1a1a"/></linearGradient><linearGradient id="linear-gradient-3" x1="6676.17" y1="451.63" x2="6703.85" y2="451.63" gradientTransform="translate(-6496.2)" gradientUnits="userSpaceOnUse"><stop offset="0" stop-color="gray"/><stop offset="1" stop-color="#666"/></linearGradient><linearGradient id="linear-gradient-4" x1="6627.55" y1="446.72" x2="6640.51" y2="446.72" xlink:href="#linear-gradient-2"/><linearGradient id="linear-gradient-5" x1="6627.55" y1="452.61" x2="6640.13" y2="452.61" xlink:href="#linear-gradient-3"/><linearGradient id="linear-gradient-6" x1="6633.03" y1="437.79" x2="6641.44" y2="437.79" gradientTransform="translate(-6496.2)" xlink:href="#linear-gradient"/><linearGradient id="linear-gradient-7" x1="6677.58" y1="437.24" x2="6684.59" y2="437.24" gradientTransform="translate(-6496.2)" xlink:href="#linear-gradient"/><linearGradient id="linear-gradient-8" x1="6698.51" y1="262.96" x2="6701.96" y2="241.67" gradientTransform="translate(-6496.2)" xlink:href="#linear-gradient"/><linearGradient id="linear-gradient-9" x1="6709.66" y1="228.44" x2="6687.32" y2="245.53" gradientTransform="translate(-6496.2)" xlink:href="#linear-gradient"/><linearGradient id="linear-gradient-10" x1="6684.48" y1="202.74" x2="6704.7" y2="228.78" gradientTransform="translate(-6496.2)" gradientUnits="userSpaceOnUse"><stop offset="0" stop-color="#1a1a1a"/><stop offset="1" stop-color="#333"/></linearGradient><linearGradient id="linear-gradient-11" x1="6706.89" y1="224.82" x2="6684.55" y2="241.91" gradientTransform="translate(-6496.2)" xlink:href="#linear-gradient"/><linearGradient id="linear-gradient-12" x1="-563.95" y1="303.02" x2="-532.59" y2="348.32" xlink:href="#linear-gradient"/><linearGradient id="linear-gradient-13" x1="-663.37" y1="307.31" x2="-635.49" y2="381.18" xlink:href="#linear-gradient"/><linearGradient id="linear-gradient-14" x1="-572.96" y1="315.29" x2="-548.17" y2="351.09" xlink:href="#linear-gradient"/></defs><title>مجموعة محمد النهدي العقارية</title><path class="cls-1" d="M677.29,447.81V453H430.72c31.75,0,69.06-.09,111.49-.09h3.86s-.27-.61-.74-1.75a171.92,171.92,0,0,0,42.32-35.55h0c.28-.2.56-.41.83-.63a22.81,22.81,0,0,0,5.43-6.52,29.53,29.53,0,0,1,3.92,6.43c1.71,3.87,3,10.25-.72,20.59-.54,1-1.08,1.89-1.62,2.79l8.57,1-.93,13.61h14.2l-.66-12.1C637.29,443.27,658.25,445.6,677.29,447.81Z"/><path class="cls-1" d="M593.73,408.24l.2.24A22.81,22.81,0,0,1,588.5,415c-.27.22-.55.43-.83.63h0a171.92,171.92,0,0,1-42.32,35.55c.47,1.14.74,1.75.74,1.75h-3.86c-42.43,0-79.74,0-111.49.09h-305c-4.41-25.35-25.08-159.22,56.63-246.51C196.94,191,226,160,272.81,153.56c29.42-4,60.93,2.25,87.51,17.49a131.32,131.32,0,0,1,30.6,24,128.86,128.86,0,0,1,23.91,36.05c1.07-1.29,2.3-2.69,3.69-4.17,8.12-8.64,21.54-19.75,39.82-23.43,15-3,33.64-1.43,48.93,7a54,54,0,0,1,18.22,16.1,55,55,0,0,1,7.82,16.22,66.87,66.87,0,0,1,.06,37.19v0c-.08.29-.17.58-.26.87-.38,1.23-.79,2.43-1.24,3.6-7.73,20.14-22.2,22.21-28.68,46.66-1.88,6.92-4.58,18.43.18,29.94C508,372.43,517.21,378.9,524,382.22a34.58,34.58,0,0,0,8.1,2.93l1.68.28h0l1.11.19C567.29,391.05,585,397.59,593.73,408.24Z"/><path class="cls-1" d="M616.69,440.84l.66,12.1h-14.2l.93-13.61Q610.34,440.1,616.69,440.84Z"/><path class="cls-2" d="M628.57,322.67a213.64,213.64,0,0,1-5.82,28.95,171.58,171.58,0,0,1-7.65,20.8q-.92,2.11-1.91,4.17-1.32,2.84-2.75,5.55c-.91,1.76-1.85,3.49-2.8,5.18-2.9,5.14-6,9.95-9.12,14.44q-1.87,2.65-3.78,5.16c-.33.44-.67.89-1,1.32-2,2.58-4,5.05-6.06,7.39h0a171.92,171.92,0,0,1-42.32,35.55c-1.22.71-2.27,1.29-3.12,1.75-42.43,0-79.74,0-111.49.09s-58,.09-78.18.09c-3.79,0-7.88,0-12.44-.09-16.32-.19-38.8-.63-76.37-.63a37.6,37.6,0,0,1-4.77-.27,43.08,43.08,0,0,1-17.52-6c-2.79-1.8-9.26-5.85-12.95-13.49,0,0-4.94-10.16-.72-24.18,5.3-18.7,36.77-28.41,77-34.88,3.41-.54,25.17-7.38,33.8-28.14,6.11-14.84,2.15-28.68.18-35.16-5.58-18.34-15.56-22.2-25.08-36.59-15.82-24-19-63.11-1.08-85.94,11.66-15,31.35-20.22,47.69-16.68a37.7,37.7,0,0,1,4.53,1.21c27,9,32.14,37.4,53.67,54.72a57.87,57.87,0,0,0,17.17,9.56c4.58,1.62,18.15,6.3,34.33,2.43,17.69-4.18,28.07-16.09,37.25-28.42,10.55-14.17,19.52-28.89,36.2-33.07C573,170,601.17,201.84,604,205.08,633.8,239.68,632.94,290.82,628.57,322.67Z"/><path class="cls-3" d="M596.73,401.2a27.65,27.65,0,0,1-2,5.72q-.37.79-.81,1.56A22.81,22.81,0,0,1,588.5,415c-.27.22-.55.43-.83.63h0c-9.86,6.95-26.64,3.1-32.23,1.79-10.51-2.41-12.2-6-20.88-6.28h-.24c-6-.2-9.67,1.29-13.38,2.91a38.36,38.36,0,0,1-10.62,3.38c-12.95,1.8-30.75-3.78-36.86-15.11-7.64-14.2,3.51-34.61,13.48-52.86,6.66-12.31,10.16-14.29,14.84-26.43,3.23-8.27,4.58-16.09,7.46-31.65,3.5-19.41,3.5-26.52,9.35-36.41,4.22-7.28,7.28-12.49,11.77-12.67a6.94,6.94,0,0,1,3,.57c11.72,4.78,25.47,38.89,26.87,70.18.45,9.71-.89,12.23,1.26,18.88a43.46,43.46,0,0,0,8.81,14.87c6.63,7.8,15.11,14.85,21.58,25.5C597.08,381.05,598.92,392,596.73,401.2Z"/><path class="cls-4" d="M546.07,452.94H520.72s1.18-6.06.2-38.89c0-1.09-.07-2.21-.11-3.36A93.42,93.42,0,0,1,524,382.22c2.22-8.21,5-14.69,6.32-21.38a37.3,37.3,0,0,0,.76-9.35,38.56,38.56,0,0,0-1.5-8.86c-5.9-20.7,1.87-55,3.49-61.68.18-.76.29-1.16.29-1.16l0,.27v0c-.28,2.66-2.18,23.41,2.18,50.59,4.65,28.95,1.21,22.56-1.73,54.76l-.06.62a112,112,0,0,0,.78,25.1,172.64,172.64,0,0,0,10.79,40C545.8,452.33,546.07,452.94,546.07,452.94Z"/><polygon class="cls-4" points="534.92 375.81 567.82 366.63 533.75 386.32 534.92 375.81"/><polygon class="cls-4" points="531.77 361.69 507.06 346.95 531.77 351.62 531.77 358.72 531.77 361.69"/><path class="cls-5" d="M610.25,403.41A42.44,42.44,0,1,0,567.82,361,42.44,42.44,0,0,0,610.25,403.41Z"/><polygon class="cls-4" points="611.33 373.47 644.41 364.3 610.25 383.99 611.33 373.47"/><polygon class="cls-4" points="610.25 360.97 585.44 346.23 610.25 355.67 610.25 358 610.25 360.97"/><polygon class="cls-4" points="617.35 452.94 603.15 452.94 604.08 439.33 606.55 403.24 607.64 387.32 609.48 360.51 609.82 355.5 611.06 337.42 613 373.01 613.19 376.59 613.49 382.11 614.64 403.17 616.69 440.84 617.35 452.94"/><path class="cls-6" d="M375,303.28l-5.48-9.55L361,295l-7.09-8.91,3.66-8.88L348,270.86l-7.15,7.21-9.41-1.65-3.82-11.07-11.44,1.2-.65,9.69L307,280.57l-9-6.39-9.15,6.67,4.76,10.25-5.45,8.2-9.9-.52L275.62,311l9.41,3.62.81,10.26-9.76,5.6,4.67,10.59,10.1-1.57,6.7,7.73-3.5,9.63,9.25,6.53,7.23-7.81,10,2.71,3.12,10.34,11.14-.75,1.43-9.29,9.55-5.48,7.82,6.23,9.88-7.36-5-8.7,4.87-8.73,10,.74,3.07-11.36-8.6-4.65-1.14-10.35Zm-38.8,33.43A22.51,22.51,0,1,1,344.56,306,22.51,22.51,0,0,1,336.24,336.71Z"/><path class="cls-6" d="M335,310.64a22.15,22.15,0,0,0-1.84-2.28,11.82,11.82,0,0,0-7-3.43A11.67,11.67,0,0,0,315.75,309a10.82,10.82,0,0,0-1.77,2.86,11,11,0,0,0-.91,3.38,11.64,11.64,0,0,0,6.88,12,11.69,11.69,0,0,0,6.75.84,11.81,11.81,0,0,0,9.35-14.72,23.91,23.91,0,0,0-1-2.73,1.21,1.21,0,0,1,.1.16l.28.5a5.92,5.92,0,0,1,.4.83,9,9,0,0,1,.42,1.19,11.44,11.44,0,0,1,.49,3.43,12,12,0,0,1-9.94,11.73,11.16,11.16,0,0,1-3.47.11,11.31,11.31,0,0,1-3.51-.95,12,12,0,0,1-7.13-12.42,11.18,11.18,0,0,1,.94-3.51,11.58,11.58,0,0,1,1.85-2.95,12.09,12.09,0,0,1,5.26-3.6,12,12,0,0,1,9.88.94,11.35,11.35,0,0,1,2.72,2.14,8.83,8.83,0,0,1,.81,1,5.49,5.49,0,0,1,.52.77l.29.49Z"/><path class="cls-6" d="M345.72,285.57c.1.06-3,4.92-6.88,10.84s-7.14,10.67-7.24,10.6,3-4.92,6.88-10.84S345.62,285.5,345.72,285.57Z"/><path class="cls-6" d="M356.78,325a29.08,29.08,0,0,1-3-.89c-1.86-.57-4.43-1.33-7.31-2s-5.5-1.22-7.41-1.56-3.1-.54-3.09-.6a3.24,3.24,0,0,1,.85,0c.54,0,1.32.14,2.29.27,1.93.27,4.58.74,7.47,1.45a75.37,75.37,0,0,1,7.29,2.16c.92.32,1.66.6,2.16.81A3.24,3.24,0,0,1,356.78,325Z"/><path class="cls-6" d="M329.71,327.57a16.17,16.17,0,0,1,.93,2.65c.5,1.65,1.14,4,1.74,6.53s1,4.92,1.32,6.63a16.26,16.26,0,0,1,.33,2.78,19.15,19.15,0,0,1-.64-2.72c-.35-1.69-.84-4-1.44-6.59s-1.18-4.88-1.61-6.55A19.42,19.42,0,0,1,329.71,327.57Z"/><path class="cls-6" d="M317.55,326.19c.1.07-1.92,3.61-4.52,7.92s-4.8,7.76-4.9,7.7,1.92-3.61,4.52-7.92S317.45,326.13,317.55,326.19Z"/><path class="cls-6" d="M315.82,287.81a88,88,0,0,1,2.82,8.39c1.43,4.67,2.51,8.48,2.39,8.51s-1.37-3.71-2.81-8.38S315.71,287.85,315.82,287.81Z"/><path class="cls-6" d="M313.27,314.31a56.52,56.52,0,0,1-7-.45,58.05,58.05,0,0,1-7-.88,56.63,56.63,0,0,1,7,.45A59.8,59.8,0,0,1,313.27,314.31Z"/><circle class="cls-6" cx="324.68" cy="316.57" r="9.29" transform="translate(-40.95 584.8) rotate(-80.54)"/><path class="cls-7" d="M329.17,316.64a13.6,13.6,0,0,1-1.28-.76,9,9,0,0,0-3.32-1.07,8.72,8.72,0,0,0-3.48.34,12.52,12.52,0,0,1-1.41.46,3.44,3.44,0,0,1,1.31-.76,7.83,7.83,0,0,1,3.62-.47,7.61,7.61,0,0,1,3.44,1.24A3.35,3.35,0,0,1,329.17,316.64Z"/><path class="cls-7" d="M325.45,311.2a21.9,21.9,0,0,0-1.47,4.31,23.05,23.05,0,0,0-.13,4.54,8.14,8.14,0,0,1-.3-4.62A8,8,0,0,1,325.45,311.2Z"/><path class="cls-8" d="M399.13,439.18V399.56H373.34v39.62a5.42,5.42,0,0,1-5.36,4.48h36.51A5.43,5.43,0,0,1,399.13,439.18Z"/><rect class="cls-8" x="215.8" y="193.8" width="325.17" height="215.47" rx="16.11"/><rect class="cls-9" x="276.88" y="145.18" width="203.01" height="312.71" rx="12.63" transform="translate(679.93 -76.85) rotate(90)"/><path class="cls-8" d="M268.51,443.66H506.2a9,9,0,0,1,9,9V453a0,0,0,0,1,0,0H259.53a0,0,0,0,1,0,0v-.36a9,9,0,0,1,9-9Z"/><path class="cls-8" d="M446.56,242.61a.34.34,0,0,1-.32-.21c-.18-.42-.36-.84-.55-1.26a.35.35,0,0,1,.17-.46.35.35,0,0,1,.46.18c.19.42.37.84.55,1.27a.35.35,0,0,1-.18.46Z"/><path class="cls-8" d="M402.53,308.64l-1.61,0a.35.35,0,0,1-.33-.36.33.33,0,0,1,.35-.33c.91,0,1.85,0,2.78,0a.33.33,0,0,1,.35.33.35.35,0,0,1-.33.36Zm5.73-.34a.35.35,0,0,1-.35-.3.36.36,0,0,1,.31-.39c.91-.11,1.83-.24,2.74-.41a.35.35,0,0,1,.4.28.36.36,0,0,1-.28.41c-.92.16-1.86.3-2.78.41Zm-11.85-.05h-.05c-.93-.12-1.86-.27-2.78-.45a.33.33,0,0,1-.27-.4.34.34,0,0,1,.4-.28c.9.18,1.83.32,2.74.44a.35.35,0,0,1,.3.39A.34.34,0,0,1,396.41,308.25Zm19-1.37a.34.34,0,0,1-.33-.25.35.35,0,0,1,.24-.43c.89-.25,1.78-.52,2.65-.82a.34.34,0,1,1,.22.65c-.88.3-1.78.59-2.68.84Zm-26.21-.13-.09,0c-.9-.26-1.81-.55-2.68-.86a.35.35,0,0,1-.21-.45.33.33,0,0,1,.44-.2c.86.3,1.75.59,2.64.85a.35.35,0,0,1-.1.68Zm33.1-2.38a.37.37,0,0,1-.32-.2.34.34,0,0,1,.18-.46c.83-.38,1.66-.79,2.48-1.22a.35.35,0,0,1,.47.14.35.35,0,0,1-.15.47c-.82.44-1.67.85-2.52,1.24A.32.32,0,0,1,422.33,304.37Zm6.41-3.54a.36.36,0,0,1-.29-.16.34.34,0,0,1,.1-.48c.77-.51,1.53-1,2.27-1.59a.35.35,0,0,1,.48.07.34.34,0,0,1-.07.48c-.75.56-1.52,1.11-2.3,1.62A.35.35,0,0,1,428.74,300.83Zm5.79-4.49a.38.38,0,0,1-.26-.11.36.36,0,0,1,0-.49c.68-.62,1.35-1.27,2-1.92a.35.35,0,0,1,.49,0,.34.34,0,0,1,0,.49c-.65.67-1.33,1.32-2,1.95A.33.33,0,0,1,434.53,296.34Zm5-5.32a.32.32,0,0,1-.22-.08.35.35,0,0,1-.05-.48c.58-.72,1.15-1.46,1.69-2.21a.35.35,0,1,1,.56.41c-.55.76-1.12,1.51-1.71,2.23A.34.34,0,0,1,439.57,291Zm4.17-6a.33.33,0,0,1-.17,0,.34.34,0,0,1-.12-.48c.46-.79.91-1.61,1.32-2.43a.35.35,0,0,1,.47-.15.34.34,0,0,1,.15.46c-.42.83-.88,1.67-1.35,2.47A.34.34,0,0,1,443.74,285Zm3.2-6.59-.12,0a.35.35,0,0,1-.2-.45c.34-.86.66-1.74.94-2.62a.35.35,0,0,1,.66.22c-.29.89-.61,1.78-1,2.65A.36.36,0,0,1,446.94,278.4Zm2.15-7H449a.35.35,0,0,1-.27-.41c.2-.9.38-1.82.53-2.73a.34.34,0,0,1,.39-.28.35.35,0,0,1,.29.39c-.15.93-.33,1.86-.53,2.77A.35.35,0,0,1,449.09,271.39Zm1-7.26h0a.35.35,0,0,1-.33-.36c.06-.92.1-1.85.1-2.78a.35.35,0,0,1,.35-.34h0a.35.35,0,0,1,.34.35c0,.93,0,1.88-.1,2.81A.34.34,0,0,1,450.13,264.13Zm-.09-7.32a.35.35,0,0,1-.34-.32c-.08-.92-.19-1.85-.32-2.76a.35.35,0,0,1,.29-.39.36.36,0,0,1,.39.29c.14.93.25,1.87.33,2.8a.35.35,0,0,1-.32.37Zm-1.19-7.24a.34.34,0,0,1-.34-.26c-.22-.89-.47-1.79-.74-2.67a.35.35,0,1,1,.66-.21c.28.89.53,1.81.75,2.72a.33.33,0,0,1-.25.41Z"/><path class="cls-8" d="M382.34,304.14a.32.32,0,0,1-.14,0L381,303.5a.34.34,0,0,1-.16-.46.36.36,0,0,1,.47-.16l1.23.6a.35.35,0,0,1,.17.46A.35.35,0,0,1,382.34,304.14Z"/><path class="cls-8" d="M357.64,276.89a.34.34,0,0,1-.32-.23q-.24-.65-.45-1.32a.34.34,0,0,1,.22-.43.35.35,0,0,1,.44.22c.14.44.29.87.44,1.3a.35.35,0,0,1-.21.44A.25.25,0,0,1,357.64,276.89Z"/><path class="cls-8" d="M356,271.27a.35.35,0,0,1-.34-.27c-.2-.9-.37-1.81-.52-2.72a.35.35,0,1,1,.69-.11c.14.89.31,1.8.51,2.68a.34.34,0,0,1-.27.41Zm-1-7.14a.34.34,0,0,1-.35-.33c-.06-.92-.1-1.85-.1-2.76a.33.33,0,0,1,.34-.35h0a.35.35,0,0,1,.35.34c0,.9,0,1.82.1,2.73a.35.35,0,0,1-.32.37Zm.06-7.22h0a.35.35,0,0,1-.32-.37c.08-.92.19-1.84.32-2.75a.34.34,0,0,1,.39-.3.35.35,0,0,1,.29.4c-.13.89-.23,1.81-.31,2.71A.33.33,0,0,1,355.09,256.91Zm1.15-7.11h-.08a.35.35,0,0,1-.25-.42c.21-.9.46-1.8.72-2.68a.36.36,0,0,1,.44-.23.35.35,0,0,1,.23.43c-.27.87-.51,1.76-.72,2.64A.35.35,0,0,1,356.24,249.8Zm2.22-6.87-.13,0a.34.34,0,0,1-.18-.45c.34-.85.72-1.7,1.12-2.53a.34.34,0,0,1,.46-.16.34.34,0,0,1,.17.46c-.4.82-.77,1.66-1.12,2.5A.34.34,0,0,1,358.46,242.93Zm3.24-6.45a.31.31,0,0,1-.18,0,.34.34,0,0,1-.11-.47c.47-.79,1-1.57,1.49-2.34a.36.36,0,0,1,.48-.09.34.34,0,0,1,.09.48c-.51.75-1,1.53-1.47,2.3A.35.35,0,0,1,361.7,236.48Zm4.17-5.88a.37.37,0,0,1-.22-.08.34.34,0,0,1,0-.49c.58-.71,1.2-1.41,1.82-2.08a.35.35,0,1,1,.51.47c-.62.66-1.22,1.35-1.8,2.05A.37.37,0,0,1,365.87,230.6Zm5-5.2a.36.36,0,0,1-.26-.11.35.35,0,0,1,0-.49c.68-.61,1.39-1.21,2.12-1.78a.34.34,0,0,1,.48,0,.35.35,0,0,1-.05.49c-.71.56-1.42,1.15-2.09,1.76A.4.4,0,0,1,370.88,225.4Zm5.73-4.38a.33.33,0,0,1-.29-.15.34.34,0,0,1,.1-.48c.77-.5,1.56-1,2.36-1.44a.34.34,0,0,1,.47.12.35.35,0,0,1-.13.48c-.78.45-1.57.93-2.32,1.42A.34.34,0,0,1,376.61,221Zm6.32-3.46a.37.37,0,0,1-.32-.2.35.35,0,0,1,.18-.46c.83-.38,1.69-.74,2.55-1.07a.35.35,0,0,1,.25.65c-.85.32-1.7.68-2.52,1.05A.32.32,0,0,1,382.93,217.56Zm37.78-.65-.13,0c-.84-.35-1.7-.68-2.56-1a.35.35,0,0,1-.21-.44.35.35,0,0,1,.44-.22c.87.31,1.74.64,2.59,1a.34.34,0,0,1,.19.45A.36.36,0,0,1,420.71,216.91Zm-31-1.81a.36.36,0,0,1-.34-.25.35.35,0,0,1,.24-.43c.89-.25,1.79-.47,2.69-.67a.34.34,0,0,1,.41.27.35.35,0,0,1-.26.41c-.89.19-1.78.41-2.65.66Zm24.14-.42h-.08c-.88-.22-1.78-.41-2.67-.57a.35.35,0,0,1,.12-.68c.91.16,1.82.36,2.71.58a.34.34,0,0,1,.26.41A.35.35,0,0,1,413.85,214.68Zm-17.07-1a.35.35,0,0,1,0-.69c.81-.1,1.64-.18,2.46-.24l.29,0a.35.35,0,0,1,.37.33.34.34,0,0,1-.32.36l-.29,0c-.81.06-1.63.14-2.43.24Zm10-.18h0c-.9-.08-1.82-.13-2.73-.16a.33.33,0,0,1-.33-.35.35.35,0,0,1,.35-.34c.92,0,1.85.08,2.77.16a.34.34,0,0,1,.31.38A.33.33,0,0,1,406.73,213.51Z"/><path class="cls-8" d="M426,219.48a.38.38,0,0,1-.17,0q-.58-.34-1.2-.66a.35.35,0,0,1-.14-.47.33.33,0,0,1,.46-.14c.41.22.82.44,1.22.67a.35.35,0,0,1,.14.47A.36.36,0,0,1,426,219.48Z"/><path class="cls-10" d="M424.44,231.28a.57.57,0,0,0-.66-.08l-6.13,3.29a30.34,30.34,0,0,0-9.22-3.42l-2.52-6.48a.55.55,0,0,0-.55-.36l-8.35.32a.57.57,0,0,0-.52.4l-2,6.66a30.4,30.4,0,0,0-8.93,4.11l-6.37-2.81a.59.59,0,0,0-.65.14l-5.67,6.12a.58.58,0,0,0-.09.66l3.29,6.14a30.36,30.36,0,0,0-3.41,9.21l-6.48,2.52a.57.57,0,0,0-.37.56l.32,8.34a.59.59,0,0,0,.41.53l6.66,2a30.32,30.32,0,0,0,4.1,8.92l-2.8,6.37a.56.56,0,0,0,.13.65l6.13,5.68a.57.57,0,0,0,.66.08l6.13-3.29a30.06,30.06,0,0,0,9.22,3.41l2.52,6.49a.55.55,0,0,0,.55.36l8.35-.32a.57.57,0,0,0,.52-.4l2-6.66a30.4,30.4,0,0,0,8.93-4.11l6.37,2.81a.59.59,0,0,0,.65-.14l5.67-6.13a.56.56,0,0,0,.09-.65l-3.29-6.14a30.36,30.36,0,0,0,3.41-9.21l6.48-2.52a.57.57,0,0,0,.37-.56l-.32-8.34a.58.58,0,0,0-.41-.53l-6.66-2a30.32,30.32,0,0,0-4.1-8.92l2.8-6.37a.56.56,0,0,0-.13-.65Z"/><path class="cls-11" d="M402.58,269a8,8,0,1,1,2.25-.33A7.87,7.87,0,0,1,402.58,269Zm0-14.84a7.29,7.29,0,0,0-2,.28,6.87,6.87,0,1,0,2-.28Z"/><path class="cls-11" d="M402.48,281.83A20.7,20.7,0,0,1,381.83,262c0-.27,0-.54,0-.81a20.66,20.66,0,0,1,19.87-20.63h0l.81,0h0a21.45,21.45,0,0,1,3.58.31l-.18,1a19.62,19.62,0,0,0-23,19.31c0,.26,0,.52,0,.77a19.63,19.63,0,0,0,39.24-.74c0-.25,0-.51,0-.76a19.59,19.59,0,0,0-3.17-10l.87-.57a20.69,20.69,0,0,1,3.34,10.5c0,.27,0,.53,0,.8a20.69,20.69,0,0,1-19.87,20.64Z"/><path class="cls-8" d="M359.93,279.78a.34.34,0,0,1-.32-.21c-.17-.42-.36-.84-.55-1.25a.35.35,0,0,1,.63-.3c.2.42.39.86.56,1.29a.35.35,0,0,1-.19.45Z"/><path class="cls-8" d="M336.06,316.89a.35.35,0,0,1,0-.69l1.12-.07c.55-.05,1.1-.11,1.64-.19a.34.34,0,0,1,.39.29.34.34,0,0,1-.29.39c-.55.08-1.12.15-1.68.2l-1.15.07Zm-4.56-.2h0a26.68,26.68,0,0,1-2.81-.51.34.34,0,0,1,.16-.67c.9.21,1.82.38,2.73.5a.34.34,0,0,1,0,.68Zm11.8-1.1a.33.33,0,0,1-.32-.24.34.34,0,0,1,.22-.43c.87-.29,1.74-.62,2.59-1a.34.34,0,0,1,.45.18.34.34,0,0,1-.17.45,26,26,0,0,1-2.66,1A.2.2,0,0,1,343.3,315.59Zm6.62-3.21a.34.34,0,0,1-.19-.63,27.26,27.26,0,0,0,2.22-1.66.34.34,0,0,1,.49,0,.35.35,0,0,1-.05.49,25.46,25.46,0,0,1-2.28,1.7A.31.31,0,0,1,349.92,312.38Zm5.5-4.89a.3.3,0,0,1-.22-.08.35.35,0,0,1,0-.49c.6-.7,1.17-1.44,1.7-2.19a.34.34,0,0,1,.48-.09.35.35,0,0,1,.08.48,26.87,26.87,0,0,1-1.73,2.25A.36.36,0,0,1,355.42,307.49Zm4-6.18a.4.4,0,0,1-.15,0,.35.35,0,0,1-.16-.46,27.18,27.18,0,0,0,1-2.58.35.35,0,0,1,.66.23c-.31.89-.67,1.78-1.07,2.64A.35.35,0,0,1,359.41,301.31Zm2.16-7h-.05a.35.35,0,0,1-.29-.4,25.58,25.58,0,0,0,.3-2.76.35.35,0,0,1,.69,0,26.61,26.61,0,0,1-.31,2.83A.34.34,0,0,1,361.57,294.27Zm.17-7.35a.35.35,0,0,1-.34-.31c-.11-.92-.26-1.84-.45-2.74a.33.33,0,0,1,.26-.41.35.35,0,0,1,.41.26c.2.93.36,1.87.47,2.81a.35.35,0,0,1-.31.38Z"/><path class="cls-8" d="M324.38,314.76a.35.35,0,0,1-.14,0c-.42-.18-.85-.38-1.27-.58a.36.36,0,0,1-.16-.47.35.35,0,0,1,.46-.16c.41.2.83.39,1.25.57a.35.35,0,0,1-.14.67Z"/><path class="cls-8" d="M309.65,299.28a.33.33,0,0,1-.32-.22c-.16-.44-.31-.89-.45-1.33a.33.33,0,0,1,.23-.43.34.34,0,0,1,.43.22c.13.43.28.87.44,1.3a.35.35,0,0,1-.21.44A.25.25,0,0,1,309.65,299.28Z"/><path class="cls-8" d="M308.24,293.59a.34.34,0,0,1-.34-.3c-.07-.47-.12-.94-.16-1.41s-.06-.92-.08-1.38a.36.36,0,0,1,.34-.36.33.33,0,0,1,.35.33c0,.45,0,.91.08,1.35s.09.92.15,1.37a.34.34,0,0,1-.29.39Zm0-7.24h-.05a.34.34,0,0,1-.29-.39,26.06,26.06,0,0,1,.51-2.75.35.35,0,0,1,.42-.25.34.34,0,0,1,.26.41,25,25,0,0,0-.51,2.69A.34.34,0,0,1,308.23,286.35Zm1.92-7a.3.3,0,0,1-.13,0,.34.34,0,0,1-.18-.46,26.48,26.48,0,0,1,1.23-2.51.35.35,0,0,1,.47-.14.34.34,0,0,1,.13.47c-.44.8-.84,1.62-1.2,2.45A.32.32,0,0,1,310.15,279.36Zm3.72-6.21a.32.32,0,0,1-.22-.08.34.34,0,0,1,0-.48,26.44,26.44,0,0,1,1.85-2.1.35.35,0,0,1,.5.48,27.06,27.06,0,0,0-1.81,2A.34.34,0,0,1,313.87,273.15Zm5.23-5a.34.34,0,0,1-.21-.62,27,27,0,0,1,2.35-1.53.34.34,0,0,1,.35.59,25,25,0,0,0-2.29,1.5A.36.36,0,0,1,319.1,268.14Zm6.37-3.43a.34.34,0,0,1-.32-.23.33.33,0,0,1,.2-.44,27.61,27.61,0,0,1,2.67-.85.35.35,0,0,1,.17.67c-.87.23-1.75.51-2.6.82Zm17-.66h-.1a24.46,24.46,0,0,0-2.66-.63.34.34,0,0,1-.28-.4.35.35,0,0,1,.4-.28,27.76,27.76,0,0,1,2.73.64.35.35,0,0,1,.24.43A.35.35,0,0,1,342.46,264.05Zm-9.93-.95a.35.35,0,0,1-.35-.31.36.36,0,0,1,.32-.38l.18,0c.76-.06,1.54-.09,2.3-.09h.32a.35.35,0,0,1,.34.35.33.33,0,0,1-.35.34H335c-.74,0-1.5,0-2.24.09l-.18,0Z"/><path class="cls-8" d="M347.89,266.3a.33.33,0,0,1-.16-.05c-.4-.21-.8-.42-1.22-.62a.35.35,0,1,1,.31-.62c.42.2.84.42,1.24.64a.35.35,0,0,1,.14.47A.37.37,0,0,1,347.89,266.3Z"/><path class="cls-10" d="M347.1,272.83a.32.32,0,0,0-.37,0l-3.45,1.91a17.19,17.19,0,0,0-5.23-1.87l-1.48-3.64a.33.33,0,0,0-.31-.21l-4.72.25a.3.3,0,0,0-.29.23l-1.09,3.78a17.21,17.21,0,0,0-5,2.39l-3.63-1.54a.33.33,0,0,0-.36.08L318,277.68a.32.32,0,0,0,0,.37l1.91,3.45a17.25,17.25,0,0,0-1.87,5.24l-3.64,1.47a.34.34,0,0,0-.21.32l.25,4.72a.32.32,0,0,0,.23.29l3.78,1.09a17.21,17.21,0,0,0,2.39,5l-1.54,3.62a.34.34,0,0,0,.08.37l3.51,3.16a.32.32,0,0,0,.37.05l3.45-1.91a17,17,0,0,0,5.24,1.86l1.47,3.65a.32.32,0,0,0,.32.2l4.72-.24a.33.33,0,0,0,.29-.23l1.09-3.79a17,17,0,0,0,5-2.39l3.62,1.54a.31.31,0,0,0,.37-.08L352,302a.32.32,0,0,0,.05-.37l-1.91-3.45A16.91,16.91,0,0,0,352,292.9l3.65-1.48a.3.3,0,0,0,.2-.31l-.24-4.72a.31.31,0,0,0-.23-.29L351.54,285a17,17,0,0,0-2.39-5l1.54-3.63a.3.3,0,0,0-.08-.36Z"/><path class="cls-11" d="M335,294.53a4.73,4.73,0,0,1-4.5-3.32,4.71,4.71,0,1,1,5.9,3.11A4.8,4.8,0,0,1,335,294.53Zm0-8.39a3.34,3.34,0,0,0-1.08.17,3.67,3.67,0,1,0,2.16,7,3.68,3.68,0,0,0,.64-6.76A3.63,3.63,0,0,0,335,286.14Z"/><path class="cls-11" d="M334.9,301.82A11.93,11.93,0,0,1,323,290.51c0-.21,0-.41,0-.62A11.92,11.92,0,0,1,334.29,278h.27a11.17,11.17,0,0,1,1.42,0c.28,0,.56.06.84.1h0l-.17,1a10.51,10.51,0,0,0-2.31-.13A10.88,10.88,0,0,0,324,289.89c0,.19,0,.38,0,.57a10.9,10.9,0,0,0,10.86,10.32l.57,0a10.88,10.88,0,0,0,10.32-10.85c0-.19,0-.38,0-.57a10.88,10.88,0,0,0-1.82-5.5l.86-.58a11.87,11.87,0,0,1,2,6c0,.21,0,.42,0,.63a11.9,11.9,0,0,1-11.3,11.89Z"/><path class="cls-8" d="M426,330.66a.34.34,0,0,1-.32-.21c-.17-.43-.36-.85-.55-1.26a.35.35,0,0,1,.17-.46.35.35,0,0,1,.46.17c.19.42.38.85.56,1.28a.36.36,0,0,1-.19.46Z"/><path class="cls-8" d="M402.14,367.77a.35.35,0,0,1,0-.7c.37,0,.74,0,1.12-.07.55,0,1.1-.1,1.64-.18a.34.34,0,1,1,.1.68c-.55.08-1.12.15-1.68.19-.39,0-.77.06-1.16.08Zm-4.56-.2h-.05a26.5,26.5,0,0,1-2.8-.51.34.34,0,0,1-.25-.42.34.34,0,0,1,.41-.25,25.61,25.61,0,0,0,2.73.49.35.35,0,0,1,.3.39A.34.34,0,0,1,397.58,367.57Zm11.8-1.1a.35.35,0,0,1-.1-.68,25.51,25.51,0,0,0,2.59-1,.34.34,0,0,1,.28.63,26,26,0,0,1-2.66,1Zm6.62-3.21a.38.38,0,0,1-.29-.15.35.35,0,0,1,.1-.48c.76-.52,1.51-1.08,2.22-1.66a.34.34,0,0,1,.49,0,.35.35,0,0,1,0,.49,27.54,27.54,0,0,1-2.28,1.7A.33.33,0,0,1,416,363.26Zm5.5-4.89a.3.3,0,0,1-.22-.08.35.35,0,0,1,0-.49,25.67,25.67,0,0,0,1.69-2.2.36.36,0,0,1,.49-.08.35.35,0,0,1,.08.48,26.87,26.87,0,0,1-1.73,2.25A.36.36,0,0,1,421.5,358.37Zm4-6.18a.28.28,0,0,1-.15,0,.34.34,0,0,1-.17-.45,27.26,27.26,0,0,0,1-2.58.34.34,0,0,1,.44-.21.35.35,0,0,1,.22.44c-.31.89-.67,1.78-1.07,2.64A.35.35,0,0,1,425.49,352.19Zm2.16-7h-.06a.35.35,0,0,1-.28-.4,25.58,25.58,0,0,0,.3-2.76.33.33,0,0,1,.36-.32.35.35,0,0,1,.33.36c-.06,1-.16,1.9-.31,2.83A.34.34,0,0,1,427.65,345.15Zm.17-7.35a.35.35,0,0,1-.34-.31c-.11-.92-.26-1.84-.46-2.74a.34.34,0,0,1,.27-.41.34.34,0,0,1,.41.26,26.54,26.54,0,0,1,.46,2.81.33.33,0,0,1-.3.38Z"/><path class="cls-8" d="M390.46,365.63a.34.34,0,0,1-.14,0c-.42-.19-.85-.38-1.27-.59a.34.34,0,1,1,.3-.62c.41.2.83.39,1.24.57a.35.35,0,0,1,.19.45A.34.34,0,0,1,390.46,365.63Z"/><path class="cls-8" d="M375.73,350.16a.34.34,0,0,1-.32-.23c-.16-.43-.31-.88-.45-1.32a.35.35,0,0,1,.23-.44.35.35,0,0,1,.43.23c.13.44.28.87.44,1.3a.35.35,0,0,1-.21.44Z"/><path class="cls-8" d="M374.32,344.47a.34.34,0,0,1-.34-.3c-.07-.47-.12-.94-.16-1.41s-.06-.92-.08-1.38a.34.34,0,0,1,.34-.36.33.33,0,0,1,.35.33c0,.45,0,.91.08,1.35s.09.92.15,1.37a.34.34,0,0,1-.29.39Zm0-7.24h-.05a.34.34,0,0,1-.29-.39,25.59,25.59,0,0,1,.51-2.75.34.34,0,1,1,.67.16,27.1,27.1,0,0,0-.5,2.69A.34.34,0,0,1,374.31,337.23Zm1.92-7-.13,0a.36.36,0,0,1-.19-.46c.37-.85.79-1.7,1.24-2.51a.35.35,0,0,1,.47-.14.35.35,0,0,1,.13.47c-.44.8-.84,1.62-1.2,2.45A.35.35,0,0,1,376.23,330.24ZM380,324a.37.37,0,0,1-.22-.08.34.34,0,0,1-.05-.48,26.44,26.44,0,0,1,1.85-2.1.35.35,0,0,1,.5.48,25,25,0,0,0-1.81,2A.37.37,0,0,1,380,324Zm5.23-5a.35.35,0,0,1-.28-.14.34.34,0,0,1,.07-.48,25.54,25.54,0,0,1,2.35-1.53.34.34,0,0,1,.47.12.34.34,0,0,1-.12.47,27.24,27.24,0,0,0-2.29,1.49A.31.31,0,0,1,385.18,319Zm6.37-3.43a.37.37,0,0,1-.33-.23.35.35,0,0,1,.21-.44,25.09,25.09,0,0,1,2.67-.85.35.35,0,0,1,.17.67c-.88.23-1.75.51-2.6.82Zm17-.66-.1,0a27,27,0,0,0-2.66-.62.34.34,0,0,1-.28-.4.35.35,0,0,1,.4-.28,27.76,27.76,0,0,1,2.73.64.35.35,0,0,1,.24.43A.35.35,0,0,1,408.54,314.93Zm-9.93-.95a.35.35,0,0,1-.35-.31.36.36,0,0,1,.32-.38l.18,0c.76-.06,1.54-.09,2.3-.09h.32a.35.35,0,0,1,0,.69h-.31c-.74,0-1.5,0-2.25.09l-.17,0Z"/><path class="cls-8" d="M414,317.18a.33.33,0,0,1-.16-.05c-.41-.22-.81-.43-1.22-.62a.35.35,0,0,1-.16-.46.35.35,0,0,1,.46-.17c.42.2.84.42,1.25.65a.35.35,0,0,1,.14.47A.37.37,0,0,1,414,317.18Z"/><path class="cls-10" d="M413.18,323.71a.32.32,0,0,0-.37,0l-3.45,1.9a17.44,17.44,0,0,0-5.23-1.86l-1.48-3.65a.33.33,0,0,0-.31-.2l-4.72.24a.32.32,0,0,0-.29.24l-1.09,3.78a17.21,17.21,0,0,0-5,2.39L387.59,325a.33.33,0,0,0-.36.08l-3.17,3.51a.32.32,0,0,0,0,.37l1.9,3.45a17.41,17.41,0,0,0-1.86,5.24l-3.65,1.47a.33.33,0,0,0-.2.32l.25,4.71a.32.32,0,0,0,.23.3l3.78,1.09a17.21,17.21,0,0,0,2.39,5l-1.54,3.62a.34.34,0,0,0,.08.37l3.51,3.16a.32.32,0,0,0,.37,0l3.45-1.9a17.23,17.23,0,0,0,5.24,1.86l1.47,3.65a.32.32,0,0,0,.32.2l4.72-.24a.33.33,0,0,0,.29-.24l1.09-3.78a17,17,0,0,0,5-2.39l3.62,1.54a.32.32,0,0,0,.37-.08l3.16-3.51a.32.32,0,0,0,0-.37l-1.9-3.45a17.17,17.17,0,0,0,1.86-5.23l3.65-1.48a.31.31,0,0,0,.2-.31l-.24-4.72a.33.33,0,0,0-.23-.3l-3.79-1.09a17,17,0,0,0-2.39-5l1.54-3.63a.31.31,0,0,0-.08-.36Z"/><path class="cls-11" d="M401,345.41a4.72,4.72,0,0,1-4.5-3.33,4.71,4.71,0,1,1,4.5,3.33Zm0-8.39a3.62,3.62,0,0,0-1.08.16,3.68,3.68,0,1,0,1.08-.16Z"/><path class="cls-11" d="M401,352.69a11.93,11.93,0,0,1-11.9-11.3c0-.21,0-.41,0-.62a11.92,11.92,0,0,1,11.3-11.89h0l.27,0a11.17,11.17,0,0,1,1.42.05c.28,0,.56.06.83.1h0l-.17,1a10.51,10.51,0,0,0-2.31-.13h-.05a10.9,10.9,0,0,0-10.27,10.86c0,.19,0,.38,0,.57A10.9,10.9,0,0,0,401,351.66l.57,0a10.89,10.89,0,0,0,10.32-10.86c0-.18,0-.37,0-.56a10.77,10.77,0,0,0-1.83-5.5l.87-.58a11.93,11.93,0,0,1,2,6c0,.21,0,.42,0,.62a11.93,11.93,0,0,1-11.3,11.9Z"/><rect class="cls-5" x="296.28" y="382.25" width="71.71" height="6.44" rx="3.09"/><rect class="cls-12" x="296.28" y="382.25" width="161.31" height="6.44" rx="3.09"/><rect class="cls-8" x="493.25" y="305.09" width="6.52" height="147.94"/><rect class="cls-8" x="468.54" y="290.19" width="55.78" height="55.78" rx="13.19"/><rect class="cls-11" x="471.72" y="292.92" width="49.63" height="49.63" rx="11.72"/><path class="cls-13" d="M485.9,303.37,483,301.92a.76.76,0,0,0-.83.09l-.32.29-.52.46-.33.3a.74.74,0,0,0-.17.81l1.13,3.08a1.44,1.44,0,0,0,1,.92l2,.44,12.89,14.32.74-.66.51-.46.81-.73L487,306.46l-.26-2A1.43,1.43,0,0,0,485.9,303.37Z"/><path class="cls-5" d="M511.06,328l-10.17-9.07-5.14,4.64,7.83,10.81a6.8,6.8,0,0,0,2.9,2.3L509.6,338a1.54,1.54,0,0,0,1.6-.22l2.14-1.93a1.53,1.53,0,0,0,.42-1.42l-.52-2.62A7,7,0,0,0,511.06,328Z"/><rect class="cls-14" x="493.85" y="320.26" width="8.62" height="1.79" rx="0.85" transform="translate(-86.93 415.88) rotate(-42.01)"/><rect class="cls-14" x="502.91" y="321.7" width="1.46" height="15.94" rx="0.72" transform="translate(-91.25 421.55) rotate(-41.99)"/><rect class="cls-14" x="505.45" y="319.42" width="1.46" height="15.94" rx="0.72" transform="translate(-89.03 422.91) rotate(-42.01)"/><path class="cls-13" d="M506.83,302.09l-4,3.71a1.26,1.26,0,0,0-.39,1l.18,2a1.26,1.26,0,0,0,1,1.12l2,.32a1.23,1.23,0,0,0,1.06-.32l4-3.71a1,1,0,0,1,1.61.67,7.14,7.14,0,0,1-2.31,5.44,6.82,6.82,0,0,1-9.29-10,7.13,7.13,0,0,1,5.59-1.92A1,1,0,0,1,506.83,302.09Z"/><path class="cls-13" d="M479.48,327.74l-.69.64c-1.18,1.09-1.53,2.63-.79,3.42l.88.95c.74.79,2.29.54,3.47-.55l.68-.64.14-.13,19.52-19.84-1.92-2.06-21.16,18.08Zm.94.9c.89-.82,2-1.07,2.49-.54s.17,1.62-.71,2.45-2,1.07-2.5.54S479.53,329.47,480.42,328.64Z"/><path class="cls-15" d="M332.13,409.28s-85.7.08-101.39,0c-11.12-.07-15.3-11.74-14.94-15V207.52c0-6.2,6.59-13.72,14.7-13.72H463.69Z"/><path class="cls-16" d="M242.25,312.7l-5.48,5.4a39.25,39.25,0,0,1-18.37-6.23c2.77-6.89,5.59-11,7.8-13.37A45.09,45.09,0,0,0,242.25,312.7Z"/><path class="cls-11" d="M204.12,292.49l12.93-20.21a50.92,50.92,0,0,0,9.15,26.22c-2.21,2.39-5,6.48-7.8,13.37A35.61,35.61,0,0,1,204.12,292.49Z"/><path class="cls-17" d="M190.38,452.23c6.44.3,12.68.11,16.85-.1-3.8-2.7-12.53-8.57-19.85-10.91l-5-.3s-1.7,2.58-2.31,8.5C180.89,450.46,183.32,451.91,190.38,452.23Z"/><path class="cls-18" d="M207.28,452.17l-.05,0c-4.17.21-10.41.4-16.85.1-7.06-.32-9.49-1.77-10.32-2.81,0,.28-.06.55-.08.83a2.35,2.35,0,0,0,2.16,2.54c5.28.4,18.36,1.3,24.67,1A.88.88,0,0,0,207.28,452.17Z"/><path class="cls-19" d="M144.28,450.51c-.47-3-1.23-7.4-1.81-8.52-.92-1.76-4.06,0-4.06,0a8.33,8.33,0,0,0-3.22,2.74c-.65,1.09-2.44,4.2-3.65,6.31a1.38,1.38,0,0,0-.19.75l12.58.44A2.52,2.52,0,0,0,144.28,450.51Z"/><path class="cls-20" d="M131.35,451.79a1.43,1.43,0,0,0,1.4,1.39l8.95.25a2.54,2.54,0,0,0,2.23-1.2Z"/><path class="cls-21" d="M145.24,431.93c-.11.37-1.73,8.24-2.44,11.7a2,2,0,0,1-2,1.58c-.53,0-1.15-.08-1.8-.16a2.38,2.38,0,0,1-2.07-2.27c-.11-3-.17-8.84.94-11.1C139.36,428.57,145.24,431.93,145.24,431.93Z"/><path class="cls-22" d="M181.38,434.19c.7,0-.28,3.6.78,7.16a1.81,1.81,0,0,0,1.67,1.44c.54,0,1.19,0,1.84-.06a2,2,0,0,0,1.86-1.82l.86-9.23Z"/><path class="cls-11" d="M200.87,336.07c-.33,1.6-12.52,72.74-12,103.84a.38.38,0,0,1-.34.4c-1.45.17-4.59,0-7.18.33-.85.1-2.56.17-2.92.19-3.18.17-4.41.85-10.55,1.5-1.55.16-3.68.07-6,.46a57.87,57.87,0,0,1-16.19.42l-3.43-.25a25.83,25.83,0,0,1-6.22-1.45,1.65,1.65,0,0,1-1-1.94c2.64-10.84,22.74-91.52,35.32-108Z"/><path class="cls-11" d="M218.72,255.9c-8-2.1-22.81-5.39-34.59-4.69a5.32,5.32,0,0,0-5,5c-1.78,31.36-4.21,59.19-8.79,75.38,10.29,4.07,20.49,6,30.55,4.48q11.31-24.21,19.76-56s3.31-16.88.1-22.51A3.3,3.3,0,0,0,218.72,255.9Z"/><path class="cls-11" d="M242.25,312.7l-5.48,5.4a39.25,39.25,0,0,1-18.37-6.23c2.77-6.89,5.59-11,7.8-13.37A45.09,45.09,0,0,0,242.25,312.7Z"/><path class="cls-23" d="M199.43,233.93s-2,12.08-2.63,17.67a2.19,2.19,0,0,0,1.19,2.18,16,16,0,0,0,12.09,1.29,2.05,2.05,0,0,0,1.38-2L211.11,237Z"/><path class="cls-24" d="M212.64,220.54s3.9,9,4.17,13.69,1.27,7.77-4.17,8.71-10-1.76-12.52-6.45c0,0-3.9-7.23-3-10.19S212.64,220.54,212.64,220.54Z"/><path class="cls-25" d="M202,233.11h.69s-2.84-5.82-.35-6.84,12.37-3,14.5-6.54a6.52,6.52,0,0,0-2.52-9,.38.38,0,0,0-.47.17l-.22.43a.37.37,0,0,1-.69-.07h0a.37.37,0,0,0-.66-.1c-.65,1.05-2.42,2.75-7.15,3.63-6.72,1.24-11.17,4-11.28,8.6a.36.36,0,0,1-.57.3c-.49-.3-1.29-.44-2.35.45-1.84,1.55-1.09,5.58,3,8.89a.36.36,0,0,1,0,.59c-.74.48-1.83,1.62,1,3.13s4.62,1.38,5.26,1.22a.37.37,0,0,0,.28-.39l-.25-4.11a.38.38,0,0,1,.37-.4Z"/><path class="cls-26" d="M202.15,234s-1.49-5.74-4.07-4.13,1.34,6.42,3.41,6.64Z"/><path class="cls-8" d="M130.34,327l-4.68,1.18c-8,2-13.45,8.08-12.08,13.5l1.63,6.45c1.37,5.42,9,8.17,17,6.13l4.68-1.18.93-.26,137.4-41.11-3.55-14L131.28,326.8Zm2,6.43c6-1.53,11.7.15,12.61,3.74s-3.26,7.76-9.32,9.29-11.7-.15-12.6-3.74S126.31,335,132.36,333.45Z"/><path class="cls-8" d="M317.4,278.61l-27.19,6.87a6.43,6.43,0,0,0-4.33,3.68l-4.07,9.39a6.44,6.44,0,0,0,1.93,7.62l8,6.33a6.42,6.42,0,0,0,5.56,1.18l27.19-6.87a5,5,0,0,1,5.65,7,37.05,37.05,0,0,1-23.95,18.84c-19.56,4.95-36.86-6.9-41.62-25.71s4.85-37.45,24.4-42.39a37,37,0,0,1,30,5.2A5,5,0,0,1,317.4,278.61Z"/><path class="cls-27" d="M318.05,281.17,290.86,288a6.43,6.43,0,0,0-4.33,3.68l-4.07,9.4a6.43,6.43,0,0,0,1.92,7.61l8.05,6.33a6.42,6.42,0,0,0,5.56,1.19l27.18-6.88a5,5,0,0,1,5.65,7,37,37,0,0,1-23.95,18.85c-19.55,4.94-36.85-6.91-41.61-25.72s4.85-37.45,24.4-42.39a37,37,0,0,1,30,5.2A5,5,0,0,1,318.05,281.17Z"/><path class="cls-27" d="M130.86,329.06l-4.69,1.19c-8,2-13.44,8.07-12.07,13.49l1.62,6.45c1.38,5.42,9,8.17,17.05,6.14l4.68-1.19.93-.25,137.4-41.12-3.55-14L131.79,328.85Zm2,6.44c6.05-1.53,11.7.14,12.61,3.74s-3.27,7.75-9.32,9.28-11.7-.14-12.61-3.74S126.82,337,132.88,335.5Z"/><path class="cls-28" d="M158.36,297.66c-4,11.13-1.74,23.06-1.74,23.06l-5.22,1.39s-6.76-8-5.21-25.85A25.52,25.52,0,0,1,158.36,297.66Z"/><path class="cls-11" d="M146.19,296.26c.17-2,.45-4.13.85-6.38,3.53-19.66,28.73-34.78,34.66-38.09a.82.82,0,0,1,1.21.74l-.85,26.72c-14,1.88-20.67,9.92-23.7,18.41A25.52,25.52,0,0,0,146.19,296.26Z"/><path class="cls-29" d="M253.28,322.51a3.43,3.43,0,0,0,2.19-1.9c.8-1.8,1.7-4.68-.23-5.56-2.87-1.3-8.1,4.06-8.1,4.06l-2.55,4.13-2.34,1.14C244.39,325,248.52,324,253.28,322.51Z"/><path class="cls-30" d="M155.66,320.66h5.05s-4.1,2.46-4.23,5,1.62,7.94,2.45,9.39c.9,1.6-11.44-2.37-7.08-14.43Z"/><path class="cls-11" d="M158.36,297.66c-4,11.13-1.74,23.06-1.74,23.06l-5.22,1.39s-6.76-8-5.21-25.85A25.52,25.52,0,0,1,158.36,297.66Z"/></svg>